<?xml version="1.0" standalone="no"?>
<!DOCTYPE svg PUBLIC "-//W3C//DTD SVG 20010904//EN"
 "http://www.w3.org/TR/2001/REC-SVG-20010904/DTD/svg10.dtd">
<svg version="1.0" xmlns="http://www.w3.org/2000/svg"
 width="512.000000pt" height="512.000000pt" viewBox="0 0 512.000000 512.000000"
 preserveAspectRatio="xMidYMid meet">
<metadata>
Created by potrace 1.11, written by Peter Selinger 2001-2013
</metadata>
<g transform="translate(0.000000,512.000000) scale(0.100000,-0.100000)"
fill="#000000" stroke="none">
<path d="M2620 4687 c-3 -3 -42 -7 -87 -11 -45 -3 -140 -18 -210 -32 -551
-109 -968 -422 -1212 -910 -105 -210 -189 -487 -216 -709 -4 -27 -8 -57 -10
-65 -19 -72 -27 -555 -13 -710 42 -453 159 -817 361 -1120 28 -41 53 -77 56
-80 3 -3 19 -23 36 -45 114 -154 354 -343 558 -439 144 -69 385 -142 525 -160
23 -3 70 -9 105 -13 79 -10 422 -10 507 -1 652 72 1053 416 1230 1056 17 63
29 116 27 118 -2 3 -33 9 -68 15 -35 5 -75 12 -89 14 -14 3 -44 7 -67 10 -44
6 -46 4 -58 -55 -51 -235 -209 -520 -365 -660 -153 -136 -355 -227 -565 -256
-27 -3 -61 -8 -75 -10 -40 -6 -259 -5 -320 1 -274 28 -511 134 -680 305 -90
90 -103 106 -157 190 -92 144 -169 336 -217 541 -40 171 -56 287 -75 524 -9
102 -7 694 2 730 3 11 8 56 12 99 4 43 8 88 11 99 2 11 6 43 9 70 3 28 8 53 9
56 2 3 7 26 10 51 9 67 62 263 98 360 144 396 403 657 744 751 251 69 583 64
812 -12 308 -102 510 -300 581 -569 26 -100 30 -138 30 -323 l1 -158 141 3
141 3 3 300 c2 165 6 311 9 325 2 14 12 79 21 145 15 109 64 402 81 483 l7 32
-124 0 -124 -1 -80 -140 c-43 -77 -82 -142 -86 -145 -4 -2 -22 10 -40 27 -131
117 -284 197 -486 253 -78 21 -117 29 -253 51 -43 7 -444 18 -450 12z"/>
</g>
</svg>
