<svg id="Layer_1" data-name="Layer 1" xmlns="http://www.w3.org/2000/svg" viewBox="0 0 275 130.83"><defs><style>.cls-1{fill:#dcae39}.cls-2{fill:#fff}.cls-3{fill:#231f20;stroke:#dcae39}</style></defs><title>Artboard 1</title><path class="cls-1" d="M146.67 57.82l.56 1.73.58.16-.88-2.7zM147.57 55.07l1.6 4.91.56.1-1.89-5.82zM153.3 55.12h-.3l1.69 5.21h.51l-1.68-5.16zM149.2 54.58l1.8 5.65h.54l-1.81-5.57zM154.73 55.05l1.66 5.1.5-.06-1.65-5.09zM151.12 55l1.75 5.37h.53L151.67 55zM159.69 53.74l1.69 5.2.47-.18-1.71-5.26zM156.45 54.82l1.64 5.06.49-.11-1.65-5.07zM161.2 52.86l1.8 5.41.45-.23-1.78-5.48zM158.11 54.4l1.65 5.09.48-.14-1.67-5.12zM165.13 48.41l2.22 6.85.4-.38-2.3-7.08q-.15.31-.32.61zM162.62 51.71l1.86 5.73.43-.28-1.91-5.82c-.11.13-.25.24-.38.37zM166.18 46.13l2.52 7.75.38-.45-2.62-8.07c-.09.27-.18.52-.28.77zM163.94 50.26l2 6.17.42-.32-2.07-6.37c-.11.18-.23.36-.35.52zM161 13.67l1.6 4.93q.4.35.77.75l-2.11-6.5zM167.91 34.89l4.34 13.36c.1-.23.2-.47.29-.71l-4.67-14.37c.03.56.04 1.13.04 1.72zM167 43.27l2.93 9 .36-.52-3.07-9.45c-.03.34-.1.7-.22.97zM162.22 11.85l3.8 11.7a20.71 20.71 0 0 1 1 3.14l6.18 19c.09-.27.18-.55.26-.82l-10.64-32.78zM160.12 16.44l.19.6c.21.11.43.22.64.35l-.57-1.75zM167.67 39.66l3.5 10.76c.11-.2.22-.4.33-.61l-3.72-11.44c-.04.44-.07.88-.11 1.29zM170 17.69q-.42-.55-.87-1.06L174.81 34c0-.6 0-1.2-.05-1.78zM164.32 12.81L174 42.67c.07-.33.13-.67.2-1l-9.2-28.5zM166.59 14.26l8 24.68q.07-.63.11-1.28l-7.43-22.87c-.21-.18-.45-.35-.68-.53zM128.89 112.54l-.18.55 2 6.3.57.13-2.23-6.85zM127.07 118.15l.26.11-.15-.45zM130.63 113.5l2 6.25.55.06-2-6.07zM127.81 115.86l1 3 .59.19-1.29-4zM136.74 114.62h-.37l1.74 5.35h.52l-1.73-5.33zM132.64 114.17l1.88 5.78h.54l-1.85-5.68zM138.15 114.56l1.71 5.26.5-.06-1.7-5.23zM134.54 114.5l1.79 5.52h.52l-1.77-5.46zM143.16 113.42l1.72 5.28.47-.17-1.74-5.34c-.15.07-.29.16-.45.23zM139.88 114.37l1.7 5.22.49-.11-1.69-5.19zM144.68 112.56l1.78 5.47.46-.21-1.81-5.56zM141.56 114l1.7 5.23.48-.15-1.7-5.23zM148.47 107.68l2.34 7.2.39-.42-2.45-7.55c-.09.26-.18.52-.28.77zM146.1 111.42l1.88 5.78c.14-.09.3-.17.44-.26l-1.94-5.94c-.12.14-.25.28-.38.42zM149.28 104.65l2.82 8.68c.13-.18.23-.37.35-.55l-3-9.28c-.06.39-.11.77-.17 1.15zM147.37 109.83l2.05 6.32c.14-.11.29-.21.42-.33l-2.12-6.54c-.1.19-.23.37-.35.55zM149.56 88.79l5.51 17c.06-.36.12-.73.17-1.1l-5.68-17.47zM149.56 99.83l3.73 11.49c.11-.21.22-.43.31-.65l-4-12.46zM149.56 83.27l5.89 18.13V99.83l-5.9-18.17zM149.56 94.31l4.74 14.59c.09-.28.17-.56.25-.84l-5-15.36zM151.09 71.42l4.37 13.46v-1.61l-3.85-11.85h-.52zM149.56 77.75l5.9 18.17v-1.61l-5.9-18.17v1.61zM152.88 71.42l2.58 7.94v-1.61l-2.06-6.33h-.52zM149.56 71.42v.81l5.9 18.17v-1.61l-5.64-17.37h-.26zM154.67 71.42l.79 2.42v-1.61l-.26-.81h-.53zM169.23 105.18l4.29 13.19.61.27-4.41-13.57zM165.88 105.9l3 9.2q.37.39.77.76l-3.27-10.07zM171.62 105.41l-.22-.69-.49.11 4.65 14.32.58.18-2.62-8.06a10.52 10.52 0 0 1-1.9-5.86zM167.55 105.54l3.79 11.65c.21.14.43.27.65.4l-4-12.16zM179.47 114.63l1.74 5.36h.52l-1.72-5.3zM167.69 78.36l5.24 16.12.66.41L168 77.65c-.13.23-.22.47-.31.71zM168.22 89.42l-1.15-3.53a12.5 12.5 0 0 0 1.15 3.53zM175.37 113.05l2.13 6.57.56.1-2-6.25a6.66 6.66 0 0 1-.69-.42zM168.79 76.23l6.34 19.5.62.3-6.61-20.33c-.14.17-.23.3-.35.53zM181.33 114.81L183 120h.52l-1.66-5.12zM166.92 81.52l3.58 11q.36.36.75.68l-4.16-12.82c-.09.39-.09.76-.17 1.14zM177.52 114.13l1.87 5.76h.54l-1.83-5.62zM186.51 114.2l1.63 5 .48-.13-1.63-5zM172.94 72.46l1.82 5.61q.19-.21.39-.4l-1.77-5.44zM181.92 98.46l-2.62-8.06-.63-.33 2.66 8.18zM183.11 114.79l1.64 5 .51-.05-1.64-5zM170.06 74.63l7.17 22.06.6.25-3.35-10.34a7.29 7.29 0 0 1-1.2-3.7l-2.81-8.65c-.14.13-.28.25-.41.38zM184 99.22l-2.56-7.89-.61-.26 2.53 7.93zM174.5 71.73l1.68 5.18.44-.25-1.62-5.1zM188.1 113.6l1.65 5.09.47-.18-1.67-5.14zM184.84 114.59l1.62 5 .49-.09-1.62-5zM179.89 97.73l-2.79-8.59a8.67 8.67 0 0 1-.69-.5l2.88 8.86zM171.46 73.42l2.15 6.58a6 6 0 0 1 .3-.7l-2-6.23c-.17.13-.31.25-.45.35zM192 109.06l2.28 7c.14-.12.27-.25.4-.38l-2.54-7.8a6.72 6.72 0 0 1-.14 1.18zM190.63 103.21l-3.1-9.53-.6-.24 2.91 8.95a7.92 7.92 0 0 1 .79.82zM179.5 70.55l1.64 5.06h.52L180 70.49zM189.6 112.69l1.73 5.32.45-.22-1.78-5.43c-.11.11-.25.22-.4.33zM176.12 71.18l1.63 5 .47-.15-1.62-5zM186 100.07l-2.58-7.94-.6-.23 2.57 7.9zM181.25 70.43l1.69 5.19.54.05-1.71-5.26zM196 114.26l-6.4-19.71-.61-.27 6.64 20.43c.14-.14.27-.29.37-.45zM188.18 101.18l-2.69-8.29-.6-.22 2.65 8.15zM177.78 70.79l1.62 5 .5-.08-1.62-5zM191 111.35l1.89 5.8.43-.28-2-6.06a6.11 6.11 0 0 1-.32.54zM186.77 70.86L189 77.6a7.13 7.13 0 0 1 .74.67L187.33 71zM198.59 106.55c0-.39 0-.75-.05-1.11l-1.77-5.44a10.83 10.83 0 0 0-.91-1.18l2.7 8.32c.01-.2.03-.39.03-.59zM197.2 112.39l-5.45-16.77-.63-.34 5.76 17.72c.12-.19.22-.4.32-.61zM183 70.44l1.76 5.42.56.11-1.79-5.51zM193.4 84.14l-4.09-12.59-.59-.21 4.19 12.9zM184.89 70.57l1.89 5.81.61.26-2-6zM198.17 109.84L194 97.12l-.69-.5 4.58 14.09c.11-.29.2-.58.28-.87zM198 83.15a11.86 11.86 0 0 0 0-1.46l-1.59-4.88a10.93 10.93 0 0 0-.93-1.25l2.47 7.61zM195.08 83.78l-3.7-11.37-.62-.28 3.82 11.76zM196.76 83.42l-3.12-9.61q-.33-.25-.68-.49l3.32 10.2zM209.75 119.01h.37l-.37-1.14v1.14zM209.75 113.97l1.63 5.04h.53l-2.16-6.66v1.62zM209.75 97.32l7.04 21.69h.52l-7.56-23.3v1.61zM209.75 108.36l3.45 10.65h.53l-3.98-12.26v1.61zM209.75 91.8l6.26 19.28v-1.61l-6.26-19.28v1.61zM219.11 119.01l-1.8-5.55h-.53l1.8 5.55h.53zM209.75 102.84l5.25 16.17h.52l-5.77-17.78v1.61zM224.49 119.01l-1.8-5.55h-.53l1.8 5.55h.53zM209.75 75.25l7.31 22.52h.53l-7.84-24.14v1.62zM209.75 86.28l6.26 19.28v-1.61l-6.26-19.28v1.61zM220.9 119.01l-1.8-5.55h-.53l1.81 5.55h.52zM226.28 119.01l-1.8-5.55h-.52l1.8 5.55h.52zM210.29 71.41l5.72 17.6v-1.62l-5.19-15.98h-.53zM219.38 97.77l-1.8-5.55h-.53l1.8 5.55h.53zM222.69 119.01l-1.8-5.55h-.52l1.8 5.55h.52zM209.75 80.77l6.26 19.28v-1.62l-6.26-19.28v1.62zM231.66 119.01l-1.8-5.55h-.52l1.8 5.55h.52zM224.76 97.77l-1.8-5.55h-.53l1.81 5.55h.52zM215.67 71.41l1.8 5.55h.53l-1.8-5.55h-.53zM228.07 119.01l-1.8-5.55h-.52l1.8 5.55h.52zM221.17 97.77l-1.8-5.55h-.52l1.8 5.55h.52zM212.09 71.41l3.92 12.08v-1.62l-3.4-10.46h-.52zM217.47 71.41l1.8 5.55h.52l-1.8-5.55h-.52zM233.46 119.01l-1.81-5.55h-.52l1.8 5.55h.53zM226.55 97.77l-1.8-5.55h-.52l1.8 5.55h.52zM213.88 71.41l2.13 6.56v-1.01h.2l-1.81-5.55h-.52zM229.87 119.01l-1.8-5.55h-.53l1.8 5.55h.53zM222.97 97.77l-1.81-5.55h-.52l1.8 5.55h.53zM222.85 71.41l1.8 5.55h.52l-1.8-5.55h-.52zM238.84 119.01l-1.81-5.55h-.52l1.8 5.55h.53zM231.93 97.77l-1.8-5.55h-.52l1.8 5.55h.52zM235.25 119.01l-1.8-5.55h-.53l1.8 5.55h.53zM219.26 71.41l1.8 5.55h.53l-1.81-5.55h-.52zM228.35 97.77l-1.81-5.55h-.52l1.8 5.55h.53zM239.27 114.82l-.44-1.36h-.53l.97 2.97v-1.61zM233.73 97.77l-1.8-5.55h-.53l1.8 5.55h.53zM224.64 71.41l1.8 5.55h.53l-1.81-5.55h-.52zM221.05 71.41l1.8 5.55h.53l-1.8-5.55h-.53zM237.04 119.01l-1.8-5.55h-.52l1.8 5.55h.52zM230.14 97.77l-1.8-5.55h-.53l1.81 5.55h.52zM230.02 71.41l1.8 5.55h.53l-1.81-5.55h-.52zM235.02 97.77v-1.55l-1.3-4h-.53l1.81 5.55h.02zM226.43 71.41l1.8 5.55h.53l-1.8-5.55h-.53zM231.81 71.41l1.8 5.55h.53l-1.8-5.55h-.53zM235.02 92.22h-.03l.03.1v-.1zM228.23 71.41l1.8 5.55h.52l-1.8-5.55h-.52zM237.19 71.41l1.65 5.06v-1.62l-1.12-3.44h-.53zM233.61 71.41l1.8 5.55h.52l-1.8-5.55h-.52zM235.4 71.41l1.8 5.55h.53l-1.81-5.55h-.52zM190.62 59.01l-4.59-14.13v1.61l4.06 12.52h.53zM187.03 59.01l-1-3.1v1.62l.48 1.48h.52zM192.41 59.01l-6.38-19.65v1.61l5.86 18.04h.52zM188.83 59.01l-2.8-8.61v1.61l2.27 7h.53zM192.29 42l-6.26-19.29v1.62l6.26 19.28V42zM197.82 59.01l-1.76-5.4h-.52l1.75 5.4h.53zM194.23 59.01l-1.75-5.4h-.19v-.58l-6.26-19.28v1.62l7.68 23.64h.52zM192.29 36.48l-6.26-19.28v1.61l6.26 19.28v-1.61zM199.61 59.01l-1.75-5.4h-.53l1.76 5.4h.52zM196.03 59.01l-1.76-5.4h-.52l1.75 5.4h.53zM192.29 47.52l-6.26-19.29v1.62l6.26 19.28v-1.61zM204.99 59.01l-1.75-5.4h-.53l1.76 5.4h.52zM192.29 19.92l-2.76-8.51H189l3.29 10.12v-1.61zM201.41 59.01l-1.76-5.4h-.52l1.75 5.4h.53zM192.29 30.96l-6.26-19.28v1.61l6.26 19.28v-1.61zM192.29 14.4l-.97-2.99h-.52l1.49 4.6V14.4zM206.79 59.01l-1.76-5.4h-.52l1.75 5.4h.53zM203.2 59.01l-1.76-5.4h-.52l1.76 5.4h.52zM192.29 25.44l-4.55-14.03h-.53l5.08 15.64v-1.61zM212.17 59.01l-1.76-5.4h-.52l1.75 5.4h.53zM208.58 59.01l-1.75-5.4h-.53l1.76 5.4h.52zM213.96 59.01l-1.75-5.4h-.53l1.76 5.4h.52zM210.37 59.01l-1.75-5.4h-.53l1.76 5.4h.52zM214.33 54.62l-.33-1.01h-.53l.86 2.62v-1.61z"/><path class="cls-2" d="M73.4 46.12l-3.1-.5c-1.66 7.34-6 11.45-13.54 11.45-12.1 0-15-10.3-15-22 0-10.73 2.52-22.18 14.83-22.18 7.34 0 12 4 12 9.87v3h3.24v-5a75.33 75.33 0 0 1 1.37-9.94h-2.82l-1.94 3.46c-2.59-2.59-6.55-4.1-12.17-4.1C41.93 10.19 34 19.84 34 34.89 34 49.5 41.43 59.8 56 59.8c11.78 0 15.89-6.7 17.4-13.68zM101.93 59.8c15.63 0 21.67-10.73 21.67-25.56 0-15.19-6.55-24-21.67-24-15.55 0-21.6 10.37-21.6 24-.01 15.48 5.47 25.56 21.6 25.56zm.07-47c12 0 13.9 9.5 13.9 22.25 0 11.59-2.16 22.18-13.9 22.18-12 0-14-9.58-14-22.18 0-12.12 2-22.27 14-22.27zM139.22 35c0-12.1 1.94-22.25 14-22.25a13.8 13.8 0 0 1 7.45 1.83l1-3.2a27.94 27.94 0 0 0-8.56-1.23c-15.55 0-21.6 10.37-21.6 24 0 13 3.87 22.21 14.68 24.81l1-2.93c-6.72-2.76-7.97-10.91-7.97-21.03zM34.7 73.79h7.13v19.73H16.48V73.79h7.13V71.2H2.29v2.59h7.13v42.41H2.29v2.59h21.32v-2.59h-7.13V96.33h25.35v19.87H34.7v2.59h21.31v-2.59h-7.13V73.79h7.13V71.2H34.7v2.59zM83.8 70.19c-15.55 0-21.6 10.37-21.6 24.05 0 15.48 5.47 25.56 21.6 25.56 15.63 0 21.67-10.73 21.67-25.56.01-15.24-6.55-24.05-21.67-24.05zm.07 47c-12 0-14-9.58-14-22.18 0-12.1 1.94-22.25 14-22.25s13.9 9.5 13.9 22.25c0 11.61-2.16 22.2-13.9 22.2zM124.93 99.21V73.79h7.13V71.2h-21.39v2.59h7.13v25.42c-.05 9.21 2.3 15.72 9.27 18.73l1.38-4.24c-2.53-2.83-3.52-7.52-3.52-14.49z"/><path class="cls-3" d="M122.63 129.86L165.68 1.28"/></svg>