<svg version="1.1" id="Laag_1" xmlns="http://www.w3.org/2000/svg" xmlns:xlink="http://www.w3.org/1999/xlink" x="0px" y="0px"
	 viewBox="0 0 141.7 141.7" style="enable-background:new 0 0 141.7 141.7;" xml:space="preserve">
<g>
	<g>
		<g>
			<path class="logo-c" style="fill:#D79E0B;" d="M112.4,102.2l-6.3-6.3c-4,4.1-8.9,7.2-14.5,9c2,0.4,4,0.6,6.1,0.6C102.9,105.5,107.9,104.4,112.4,102.2z"
				/>
		</g>
		<g>
			<path class="logo-c" style="fill:#D79E0B;" d="M97.7,36.3c-2.1,0-4.1,0.2-6.1,0.6c5.3,1.7,10,4.7,13.9,8.5l6.1-6.1C107.3,37.3,102.6,36.3,97.7,36.3z"/>
		</g>
		<g>
			<path class="logo-c" style="fill:#D79E0B;" d="M30.3,70.9c0-32.6,23.2-59.9,54-66.1c-1.3-0.1-2.6-0.1-3.9-0.1c-36.6,0-66.2,29.7-66.2,66.2
				c0,36.6,29.7,66.2,66.2,66.2c1.3,0,2.6,0,3.9-0.1C53.5,130.7,30.3,103.5,30.3,70.9z"/>
		</g>
		<g>
			<path class="logo-c" style="fill:#D79E0B;" d="M32.7,70.9c0,34.5,27.1,62.8,61.1,64.9c13.1-2.7,24.7-9.2,33.7-18.3l-13.3-13.3
				c-5.1,2.5-10.7,3.9-16.5,3.9c-3.9,0-7.7-0.6-11.3-1.8c-2,0.3-4,0.5-6.1,0.5c-19.8,0-35.8-16-35.8-35.8c0-19.8,16-35.8,35.8-35.8
				c2.1,0,4.1,0.2,6.1,0.5c3.5-1.1,7.3-1.7,11.2-1.7c5.5,0,10.9,1.2,15.7,3.5L127,23.8C118.1,14.9,106.6,8.6,93.8,6
				C59.8,8,32.7,36.3,32.7,70.9z"/>
		</g>
	</g>
</g>
</svg>
