<svg xmlns="http://www.w3.org/2000/svg" viewBox="0 0 141.7 141.7"><path class="logo-c" d="M112.4 102.2l-6.3-6.3c-4 4.1-8.9 7.2-14.5 9 2 .4 4 .6 6.1.6 5.2 0 10.2-1.1 14.7-3.3zM97.7 36.3c-2.1 0-4.1.2-6.1.6 5.3 1.7 10 4.7 13.9 8.5l6.1-6.1c-4.3-2-9-3-13.9-3zM30.3 70.9c0-32.6 23.2-59.9 54-66.1-1.3-.1-2.6-.1-3.9-.1-36.6 0-66.2 29.7-66.2 66.2 0 36.6 29.7 66.2 66.2 66.2 1.3 0 2.6 0 3.9-.1-30.8-6.3-54-33.5-54-66.1z" fill="#d79e0b"/><path class="logo-c" d="M32.7 70.9c0 34.5 27.1 62.8 61.1 64.9 13.1-2.7 24.7-9.2 33.7-18.3l-13.3-13.3c-5.1 2.5-10.7 3.9-16.5 3.9-3.9 0-7.7-.6-11.3-1.8-2 .3-4 .5-6.1.5-19.8 0-35.8-16-35.8-35.8 0-19.8 16-35.8 35.8-35.8 2.1 0 4.1.2 6.1.5 3.5-1.1 7.3-1.7 11.2-1.7 5.5 0 10.9 1.2 15.7 3.5L127 23.8C118.1 14.9 106.6 8.6 93.8 6c-34 2-61.1 30.3-61.1 64.9z" fill="#d79e0b"/></svg>