<?xml version="1.0" encoding="utf-8"?>
<!-- Generator: Adobe Illustrator 18.1.1, SVG Export Plug-In . SVG Version: 6.00 Build 0)  -->
<!DOCTYPE svg PUBLIC "-//W3C//DTD SVG 1.1//EN" "http://www.w3.org/Graphics/SVG/1.1/DTD/svg11.dtd">
<svg version="1.1" id="Laag_1" xmlns="http://www.w3.org/2000/svg" xmlns:xlink="http://www.w3.org/1999/xlink" x="0px" y="0px"
	 viewBox="0 0 294.8 150.2" enable-background="new 0 0 294.8 150.2" xml:space="preserve">
<g>
	<path opacity="0.9" fill="#FFFFFF" d="M64.3,66c2.7-2.7,6-4,9.9-4c3.9,0,7.2,1.3,9.9,4c2.7,2.7,4.1,6,4.1,9.9
		c0,3.9-1.4,7.2-4.1,9.9c-2.7,2.7-6,4-9.9,4c-3.9,0-7.2-1.3-9.9-4c-2.7-2.7-4.1-6-4.1-9.9C60.3,72,61.6,68.7,64.3,66z M80.6,69.5
		c-1.8-1.8-3.9-2.7-6.3-2.7c-2.5,0-4.6,0.9-6.3,2.7c-1.8,1.8-2.6,3.9-2.6,6.4c0,2.5,0.9,4.6,2.6,6.4c1.8,1.8,3.9,2.7,6.3,2.7
		c2.5,0,4.6-0.9,6.3-2.7c1.8-1.8,2.6-3.9,2.6-6.4C83.2,73.4,82.3,71.2,80.6,69.5z"/>
	<path opacity="0.9" fill="#FFFFFF" d="M98.2,66c2.7-2.7,6-4,9.9-4c3.9,0,7.2,1.3,9.9,4c2.7,2.7,4.1,6,4.1,9.9
		c0,3.9-1.4,7.2-4.1,9.9c-2.7,2.7-6,4-9.9,4c-3.9,0-7.2-1.3-9.9-4c-2.7-2.7-4.1-6-4.1-9.9C94.1,72,95.5,68.7,98.2,66z M114.4,69.5
		c-1.8-1.8-3.9-2.7-6.3-2.7c-2.5,0-4.6,0.9-6.3,2.7c-1.8,1.8-2.6,3.9-2.6,6.4c0,2.5,0.9,4.6,2.6,6.4c1.8,1.8,3.9,2.7,6.3,2.7
		c2.5,0,4.6-0.9,6.3-2.7c1.8-1.8,2.6-3.9,2.6-6.4C117.1,73.4,116.2,71.2,114.4,69.5z"/>
	<path opacity="0.9" fill="#FFFFFF" d="M135,40.3v48.6h-5V40.3H135z"/>
	<path opacity="0.5" fill="#96A29D" d="M145.1,40.5h2.6V66h0.1c0.8-1.5,1.9-2.7,3.3-3.6c1.4-0.8,3-1.3,4.8-1.3c3.3,0,5.6,0.9,7,2.8
		c1.3,1.9,2,4.7,2,8.5v16.4h-2.6V72.6c0-1.4-0.1-2.6-0.2-3.5c-0.1-0.9-0.4-1.8-0.8-2.7c-0.4-0.9-1.1-1.6-2-2
		c-0.9-0.4-2.1-0.6-3.5-0.6c-5.3,0-7.9,4-7.9,11.9v13.4h-2.6V40.5z"/>
	<path opacity="0.5" fill="#96A29D" d="M188.3,61.2c4,0,7.4,1.4,10.1,4.1c2.8,2.7,4.1,6.1,4.1,10.1s-1.4,7.3-4.1,10.1
		s-6.1,4.1-10.1,4.1c-3.9,0-7.2-1.4-9.9-4.1c-2.8-2.8-4.1-6.1-4.1-9.9c0-3.9,1.4-7.3,4.1-10C181.1,62.6,184.4,61.2,188.3,61.2z
		 M188.1,63.7c-3.2,0-5.8,1.2-8,3.5c-2.2,2.3-3.3,5.1-3.3,8.3c0,3.1,1.1,5.9,3.3,8.2c2.2,2.3,4.8,3.5,8,3.5c3.3,0,6.1-1.1,8.4-3.3
		c2.3-2.2,3.4-5,3.4-8.3c0-3.3-1.1-6.1-3.4-8.4C194.3,64.8,191.5,63.7,188.1,63.7z"/>
	<path opacity="0.5" fill="#96A29D" d="M228.5,61.8h2.6v16.3c0,1.3,0,2.2,0,2.8c0,0.6-0.2,1.4-0.4,2.4c-0.3,1-0.7,1.8-1.2,2.6
		c-1.8,2.4-4.5,3.6-8.1,3.6s-6.3-1.2-8.1-3.6c-0.5-0.7-0.9-1.6-1.2-2.6c-0.3-1-0.4-1.8-0.4-2.4c0-0.6,0-1.6,0-2.8V61.8h2.6v15.3
		c0,1.5,0.1,2.8,0.2,3.8c0.1,1,0.4,2,0.9,3.1c0.4,1,1.2,1.8,2.2,2.3c1,0.5,2.3,0.8,3.8,0.8c1.6,0,2.8-0.3,3.8-0.8
		c1-0.5,1.7-1.3,2.2-2.3c0.4-1,0.7-2,0.9-3.1s0.2-2.3,0.2-3.8V61.8z"/>
	<path opacity="0.5" fill="#96A29D" d="M256.1,65.6l-2.3,1.2c-0.9-2-2.5-3.1-4.8-3.1c-1.2,0-2.2,0.4-3.2,1.3c-1,0.8-1.4,1.8-1.4,3
		c0,1.2,0.5,2.1,1.4,2.9c0.9,0.7,2,1.3,3.3,1.8c1.3,0.5,2.6,0.9,3.9,1.5s2.4,1.4,3.3,2.6s1.4,2.7,1.4,4.5c0,2.5-0.8,4.5-2.5,6.1
		s-3.8,2.4-6.2,2.4c-2.3,0-4.3-0.6-6-1.9c-1.7-1.3-2.8-3-3.4-5.2l2.6-0.8c1.1,3.7,3.4,5.5,6.8,5.5c1.7,0,3.1-0.6,4.3-1.8
		c1.2-1.2,1.8-2.6,1.8-4.3c0-1.5-0.5-2.6-1.3-3.3c-0.9-0.7-2.2-1.4-3.9-2c-1.3-0.5-2.2-0.9-2.9-1.1c-0.7-0.3-1.5-0.7-2.4-1.4
		c-0.9-0.6-1.6-1.3-2-2.1c-0.4-0.8-0.6-1.8-0.6-2.9c0-2,0.7-3.6,2.2-4.9c1.4-1.3,3.2-1.9,5.2-1.9c1.4,0,2.8,0.4,4.1,1.2
		C254.6,63.3,255.5,64.3,256.1,65.6z"/>
	<path opacity="0.5" fill="#96A29D" d="M291.2,75.6h-23.5c-0.1,3.4,0.9,6.2,3,8.3c2.1,2.1,4.7,3.2,7.9,3.2c2,0,3.9-0.6,5.5-1.7
		c1.7-1.1,3-2.6,4-4.5l2.2,1.3c-2.6,4.9-6.6,7.3-12.2,7.3c-3.9,0-7.1-1.4-9.5-4.1c-2.4-2.8-3.6-6.1-3.6-10.1c0-3.9,1.2-7.2,3.7-10
		c2.4-2.7,5.6-4.1,9.5-4.1c4,0,7.2,1.4,9.5,4.2C290,68.2,291.2,71.6,291.2,75.6z M267.6,73.1h20.9c-0.4-2.6-1.5-4.8-3.4-6.7
		c-1.9-1.9-4.2-2.8-6.9-2.8c-2.7,0-5.1,0.9-7.2,2.8C269,68.3,267.9,70.6,267.6,73.1z"/>
</g>
<path fill="#FFFFFF" d="M21.5,75c0-35.6,26.2-65.2,60.4-70.5c-2.5-0.3-5-0.4-7.6-0.4C35.1,4.1,3.4,35.9,3.4,75
	c0,39.2,31.7,70.9,70.9,70.9c2.6,0,5.1-0.1,7.6-0.4C47.7,140.2,21.5,110.6,21.5,75z"/>
<path fill="#FFFFFF" d="M109.2,109.3l-7.4-7.4c-4.7,4.8-10.6,8.4-17.3,10.2c2.7,0.6,5.5,0.9,8.4,0.9
	C98.6,113,104.1,111.7,109.2,109.3z"/>
<path fill="#FFFFFF" d="M84.5,38c6.4,1.8,12.1,5.1,16.7,9.6l7.2-7.2c-4.8-2.2-10.1-3.3-15.5-3.3C90,37.1,87.2,37.4,84.5,38z"/>
<path fill="#FFFFFF" d="M82.7,112.5c-2.7,0.6-5.5,0.9-8.4,0.9c-21.2,0-38.4-17.2-38.4-38.4c0-21.2,17.2-38.4,38.4-38.4
	c2.9,0,5.7,0.3,8.4,0.9c3.2-0.9,6.6-1.4,10.2-1.4c5.7,0,11.2,1.2,16.2,3.5l15.1-15.1C113.8,14.4,100.3,7.3,85.3,5
	C50,8.8,22.4,38.7,22.4,75c0,36.3,27.6,66.3,62.9,70.1c15.3-2.4,29.1-9.7,39.5-20.2l-14.9-14.9c-5.2,2.5-11,3.9-17,3.9
	C89.3,113.8,85.9,113.3,82.7,112.5z"/>
<g>
	<path fill="#FFFFFF" d="M176.2,105c0,0.6,0.2,1.1,0.4,1.5c0.2,0.4,0.5,0.7,0.8,1c0.3,0.3,0.7,0.4,1.2,0.6c0.4,0.1,0.9,0.2,1.4,0.2
		c0.6,0,1.1-0.1,1.5-0.2c0.4-0.1,0.8-0.3,1-0.6c0.3-0.3,0.5-0.5,0.6-0.9c0.1-0.3,0.2-0.7,0.2-1c0-0.5-0.1-0.9-0.3-1.2
		c-0.2-0.3-0.5-0.6-0.9-0.8c-0.4-0.2-0.8-0.4-1.3-0.5c-0.5-0.1-1-0.2-1.5-0.4c-0.5-0.1-1-0.3-1.5-0.4c-0.5-0.2-0.9-0.4-1.3-0.6
		c-0.4-0.3-0.7-0.6-0.9-1c-0.2-0.4-0.3-1-0.3-1.6c0-0.5,0.1-0.9,0.3-1.3c0.2-0.4,0.5-0.8,0.8-1.1c0.4-0.3,0.8-0.6,1.4-0.8
		c0.6-0.2,1.2-0.3,1.9-0.3c0.7,0,1.4,0.1,2,0.3c0.6,0.2,1,0.5,1.4,0.9c0.4,0.4,0.6,0.8,0.8,1.3c0.2,0.5,0.3,1,0.3,1.5H183
		c0-0.5-0.1-0.9-0.3-1.3s-0.4-0.7-0.7-0.9c-0.3-0.2-0.7-0.4-1-0.5s-0.8-0.2-1.2-0.2c-0.6,0-1.2,0.1-1.6,0.3c-0.4,0.2-0.8,0.4-1,0.7
		c-0.3,0.3-0.4,0.6-0.5,0.9c-0.1,0.3-0.1,0.7-0.1,1c0.1,0.4,0.2,0.8,0.5,1c0.3,0.3,0.6,0.5,1,0.6c0.4,0.2,0.8,0.3,1.3,0.4
		c0.5,0.1,1,0.2,1.4,0.3c0.5,0.1,1,0.3,1.4,0.4c0.5,0.2,0.9,0.4,1.2,0.6s0.6,0.6,0.9,1c0.2,0.4,0.3,1,0.3,1.6c0,1.2-0.4,2.2-1.3,2.8
		s-2,1-3.6,1c-0.7,0-1.3-0.1-1.9-0.3c-0.6-0.2-1.1-0.4-1.5-0.8c-0.4-0.4-0.8-0.8-1-1.3c-0.2-0.5-0.4-1.2-0.4-1.9H176.2z"/>
	<path fill="#FFFFFF" d="M193.4,102.4c-0.2-0.7-0.5-1.3-1-1.7c-0.5-0.4-1.1-0.6-1.8-0.6c-0.6,0-1,0.1-1.5,0.3
		c-0.4,0.2-0.7,0.5-1,0.9c-0.3,0.4-0.4,0.8-0.6,1.3c-0.1,0.5-0.2,1-0.2,1.5c0,0.5,0.1,1,0.2,1.5c0.1,0.5,0.3,0.9,0.6,1.3
		c0.3,0.4,0.6,0.7,1,0.9c0.4,0.2,0.9,0.3,1.5,0.3c0.8,0,1.5-0.2,2-0.7c0.5-0.5,0.8-1.1,0.9-1.9h1.2c-0.1,0.5-0.3,1-0.5,1.4
		c-0.2,0.4-0.5,0.8-0.8,1.1s-0.7,0.6-1.2,0.7c-0.5,0.2-1,0.3-1.6,0.3c-0.8,0-1.4-0.1-2-0.4c-0.6-0.3-1-0.6-1.4-1.1
		c-0.4-0.4-0.6-1-0.8-1.6s-0.3-1.3-0.3-2c0-0.7,0.1-1.3,0.3-1.9c0.2-0.6,0.5-1.1,0.8-1.6c0.4-0.5,0.8-0.8,1.4-1.1
		c0.5-0.3,1.2-0.4,1.9-0.4c1.1,0,2,0.3,2.7,0.8c0.7,0.5,1.1,1.3,1.3,2.5H193.4z"/>
	<path fill="#FFFFFF" d="M196.9,108.9V95.7h1.1v5c0.4-0.5,0.9-0.8,1.4-1.1c0.5-0.3,1-0.4,1.7-0.4c0.6,0,1.1,0.1,1.6,0.3
		c0.5,0.2,0.9,0.6,1.3,1.1c0.2,0.3,0.4,0.7,0.4,1.1s0.1,0.7,0.1,1.1v6.2h-1.1v-6.2c0-0.9-0.2-1.5-0.6-1.9c-0.4-0.4-1-0.6-1.9-0.6
		c-0.3,0-0.7,0.1-0.9,0.2c-0.3,0.1-0.5,0.2-0.8,0.4c-0.2,0.2-0.4,0.4-0.6,0.6s-0.3,0.5-0.4,0.7c-0.1,0.3-0.2,0.6-0.2,0.9
		c0,0.3,0,0.6,0,0.9v5.1H196.9z"/>
	<path fill="#FFFFFF" d="M207.8,104.4c0,0.5,0.1,1,0.2,1.5s0.3,0.9,0.6,1.2c0.3,0.3,0.6,0.6,1,0.8s0.9,0.3,1.4,0.3
		c0.7,0,1.3-0.2,1.9-0.6s0.9-0.9,1-1.6h1.2c-0.1,0.5-0.3,0.9-0.5,1.3c-0.2,0.4-0.5,0.7-0.8,1c-0.3,0.3-0.7,0.5-1.2,0.7
		c-0.5,0.2-1,0.2-1.6,0.2c-0.8,0-1.4-0.1-2-0.4c-0.6-0.3-1-0.6-1.4-1.1c-0.4-0.4-0.6-1-0.8-1.6s-0.3-1.3-0.3-2s0.1-1.4,0.3-2
		s0.5-1.1,0.9-1.6c0.4-0.5,0.8-0.8,1.4-1.1c0.5-0.3,1.2-0.4,1.8-0.4c1.3,0,2.3,0.5,3.1,1.4c0.7,0.9,1.1,2.2,1.1,3.9H207.8z
		 M214,103.5c0-0.5-0.1-0.9-0.2-1.3c-0.1-0.4-0.3-0.8-0.6-1.1c-0.3-0.3-0.6-0.5-0.9-0.7s-0.8-0.3-1.3-0.3s-0.9,0.1-1.3,0.3
		c-0.4,0.2-0.7,0.4-1,0.7c-0.3,0.3-0.5,0.7-0.6,1.1s-0.3,0.8-0.3,1.3H214z"/>
	<path fill="#FFFFFF" d="M216.3,99.4h1.2l3.1,8.2l3.1-8.2h1.2l-3.7,9.5H220L216.3,99.4z"/>
	<path fill="#FFFFFF" d="M227.2,104.4c0,0.5,0.1,1,0.2,1.5s0.3,0.9,0.6,1.2c0.3,0.3,0.6,0.6,1,0.8s0.9,0.3,1.4,0.3
		c0.7,0,1.3-0.2,1.9-0.6s0.9-0.9,1-1.6h1.2c-0.1,0.5-0.3,0.9-0.5,1.3c-0.2,0.4-0.5,0.7-0.8,1c-0.3,0.3-0.7,0.5-1.2,0.7
		c-0.5,0.2-1,0.2-1.6,0.2c-0.8,0-1.4-0.1-2-0.4c-0.6-0.3-1-0.6-1.4-1.1c-0.4-0.4-0.6-1-0.8-1.6s-0.3-1.3-0.3-2s0.1-1.4,0.3-2
		s0.5-1.1,0.9-1.6c0.4-0.5,0.8-0.8,1.4-1.1c0.5-0.3,1.2-0.4,1.8-0.4c1.3,0,2.3,0.5,3.1,1.4c0.7,0.9,1.1,2.2,1.1,3.9H227.2z
		 M233.4,103.5c0-0.5-0.1-0.9-0.2-1.3c-0.1-0.4-0.3-0.8-0.6-1.1c-0.3-0.3-0.6-0.5-0.9-0.7s-0.8-0.3-1.3-0.3s-0.9,0.1-1.3,0.3
		c-0.4,0.2-0.7,0.4-1,0.7c-0.3,0.3-0.5,0.7-0.6,1.1s-0.3,0.8-0.3,1.3H233.4z"/>
	<path fill="#FFFFFF" d="M237.9,108.9h-1.1v-9.5h1.1v1.3c0.4-0.5,0.9-0.8,1.4-1.1c0.5-0.3,1-0.4,1.7-0.4c0.6,0,1.1,0.1,1.6,0.3
		c0.5,0.2,0.9,0.6,1.3,1.1c0.2,0.3,0.4,0.7,0.4,1.1s0.1,0.7,0.1,1.1v6.2h-1.1v-6.2c0-0.9-0.2-1.5-0.6-1.9c-0.4-0.4-1-0.6-1.9-0.6
		c-0.3,0-0.7,0.1-0.9,0.2c-0.3,0.1-0.5,0.2-0.8,0.4c-0.2,0.2-0.4,0.4-0.6,0.6s-0.3,0.5-0.4,0.7c-0.1,0.3-0.2,0.6-0.2,0.9
		c0,0.3,0,0.6,0,0.9V108.9z"/>
	<path fill="#FFFFFF" d="M247.1,97.3v-1.6h1.2v1.6H247.1z M247.1,108.9v-9.5h1.1v9.5H247.1z"/>
	<path fill="#FFFFFF" d="M252.2,108.9h-1.1v-9.5h1.1v1.3c0.4-0.5,0.9-0.8,1.4-1.1c0.5-0.3,1-0.4,1.7-0.4c0.6,0,1.1,0.1,1.6,0.3
		c0.5,0.2,0.9,0.6,1.3,1.1c0.2,0.3,0.4,0.7,0.4,1.1s0.1,0.7,0.1,1.1v6.2h-1.1v-6.2c0-0.9-0.2-1.5-0.6-1.9c-0.4-0.4-1-0.6-1.9-0.6
		c-0.3,0-0.7,0.1-0.9,0.2c-0.3,0.1-0.5,0.2-0.8,0.4c-0.2,0.2-0.4,0.4-0.6,0.6s-0.3,0.5-0.4,0.7c-0.1,0.3-0.2,0.6-0.2,0.9
		c0,0.3,0,0.6,0,0.9V108.9z"/>
	<path fill="#FFFFFF" d="M268.6,99.4h1.1v8.6c0,0.6-0.1,1.2-0.2,1.8c-0.1,0.6-0.4,1.1-0.7,1.5c-0.3,0.4-0.8,0.8-1.4,1.1
		c-0.6,0.3-1.3,0.4-2.2,0.4c-0.7,0-1.3-0.1-1.8-0.3c-0.5-0.2-0.9-0.4-1.2-0.7c-0.3-0.3-0.6-0.6-0.7-0.9c-0.2-0.3-0.3-0.6-0.3-0.9
		h1.2c0.1,0.4,0.2,0.6,0.4,0.9c0.2,0.2,0.4,0.4,0.7,0.5c0.3,0.1,0.5,0.2,0.8,0.3s0.6,0.1,1,0.1c0.7,0,1.3-0.1,1.8-0.4
		c0.5-0.3,0.8-0.6,1-1c0.2-0.4,0.4-0.9,0.5-1.4c0.1-0.5,0.1-1.1,0.1-1.6c-0.4,0.6-0.8,1-1.5,1.3c-0.6,0.3-1.3,0.5-1.9,0.5
		c-0.7,0-1.4-0.1-1.9-0.4s-1-0.6-1.3-1.1c-0.3-0.5-0.6-1-0.8-1.6c-0.2-0.6-0.3-1.2-0.3-1.9c0-0.7,0.1-1.4,0.2-2
		c0.2-0.6,0.4-1.1,0.8-1.6c0.3-0.4,0.8-0.8,1.3-1.1s1.2-0.4,2-0.4c0.3,0,0.6,0,0.9,0.1c0.3,0.1,0.6,0.2,0.9,0.4
		c0.3,0.2,0.6,0.4,0.8,0.6c0.3,0.2,0.5,0.5,0.6,0.8h0V99.4z M268.6,104.2c0-0.6-0.1-1.1-0.2-1.6c-0.1-0.5-0.3-0.9-0.6-1.3
		s-0.6-0.6-1-0.9s-0.9-0.3-1.4-0.3c-0.5,0-0.9,0.1-1.3,0.2c-0.4,0.2-0.7,0.4-1,0.7c-0.3,0.3-0.5,0.7-0.7,1.2c-0.2,0.5-0.2,1-0.2,1.6
		c0,0.6,0,1.2,0.1,1.7c0.1,0.5,0.3,1,0.6,1.4c0.3,0.4,0.6,0.7,1,0.9c0.4,0.2,0.9,0.3,1.5,0.3c0.5,0,1-0.1,1.4-0.3
		c0.4-0.2,0.7-0.5,1-0.9c0.3-0.4,0.5-0.8,0.6-1.3C268.6,105.3,268.6,104.8,268.6,104.2z"/>
	<path fill="#FFFFFF" d="M273.2,104.4c0,0.5,0.1,1,0.2,1.5s0.3,0.9,0.6,1.2c0.3,0.3,0.6,0.6,1,0.8s0.9,0.3,1.4,0.3
		c0.7,0,1.3-0.2,1.9-0.6s0.9-0.9,1-1.6h1.2c-0.1,0.5-0.3,0.9-0.5,1.3c-0.2,0.4-0.5,0.7-0.8,1c-0.3,0.3-0.7,0.5-1.2,0.7
		c-0.5,0.2-1,0.2-1.6,0.2c-0.8,0-1.4-0.1-2-0.4c-0.6-0.3-1-0.6-1.4-1.1c-0.4-0.4-0.6-1-0.8-1.6s-0.3-1.3-0.3-2s0.1-1.4,0.3-2
		s0.5-1.1,0.9-1.6c0.4-0.5,0.8-0.8,1.4-1.1c0.5-0.3,1.2-0.4,1.8-0.4c1.3,0,2.3,0.5,3.1,1.4c0.7,0.9,1.1,2.2,1.1,3.9H273.2z
		 M279.4,103.5c0-0.5-0.1-0.9-0.2-1.3c-0.1-0.4-0.3-0.8-0.6-1.1c-0.3-0.3-0.6-0.5-0.9-0.7s-0.8-0.3-1.3-0.3s-0.9,0.1-1.3,0.3
		c-0.4,0.2-0.7,0.4-1,0.7c-0.3,0.3-0.5,0.7-0.6,1.1s-0.3,0.8-0.3,1.3H279.4z"/>
	<path fill="#FFFFFF" d="M283.8,108.9h-1.1v-9.5h1.1v1.3c0.4-0.5,0.9-0.8,1.4-1.1c0.5-0.3,1-0.4,1.7-0.4c0.6,0,1.1,0.1,1.6,0.3
		c0.5,0.2,0.9,0.6,1.3,1.1c0.2,0.3,0.4,0.7,0.4,1.1s0.1,0.7,0.1,1.1v6.2h-1.1v-6.2c0-0.9-0.2-1.5-0.6-1.9c-0.4-0.4-1-0.6-1.9-0.6
		c-0.3,0-0.7,0.1-0.9,0.2c-0.3,0.1-0.5,0.2-0.8,0.4c-0.2,0.2-0.4,0.4-0.6,0.6s-0.3,0.5-0.4,0.7c-0.1,0.3-0.2,0.6-0.2,0.9
		c0,0.3,0,0.6,0,0.9V108.9z"/>
</g>
</svg>
