<svg id="Laag_1" data-name="Laag 1" xmlns="http://www.w3.org/2000/svg" viewBox="0 0 212.6 224.71" xmlns:xlink="http://www.w3.org/1999/xlink"><defs><style>.cls-1,.cls-2{fill:#143351}.cls-3{fill:#fff}a:hover .cls-1{fill:#eb6807}a:hover .cls-2{fill:#2aa737}</style></defs><title>logo_bam</title><a xlink:href="http://www.bamwoningbouw.nl/"><path class="cls-1" d="M0 24.88h26.33v177.85H0z"/><path class="cls-2" d="M30.67 24.88H212.6v177.85H30.67z"/><path class="cls-3" d="M166.2 128.78c-1.8 0-3.22.42-6.79 1.62a5.28 5.28 0 0 0-4.16-1.61c-1.81 0-3.14.47-6.18 1.6v-1.24h-5.6v18.55h5.8v-14.5a13.92 13.92 0 0 1 2.78-.34c2.2 0 2.93.82 2.93 2.49v12.37h5.8v-13a4.42 4.42 0 0 0-.13-1.23 1 1 0 0 0 0-.22 14 14 0 0 1 2.77-.37c2.31 0 3.14.8 3.14 2.9v11.93h5.8V135.1c0-5-2.59-6.31-6.12-6.31M133.43 147.73v-1.21c-2.28 1-3.65 1.48-5.3 1.48a5.4 5.4 0 0 1-5.66-5.75c0-3.73 2.23-5.44 5.91-5.86a40.53 40.53 0 0 1 4.89-.24v-1.45c0-1.64-1.13-2.23-3.15-2.23a36.14 36.14 0 0 0-6 .58v-3a33.77 33.77 0 0 1 8-1.26 8 8 0 0 1 4.74 1.25c1.27.94 1.92 2.39 1.92 5.1v12.57h-5.33m-.17-8.66a19.44 19.44 0 0 0-2.8.2c-1.53.27-2.33 1.07-2.33 2.46 0 1.89 1.26 2.6 3 2.6a9.42 9.42 0 0 0 2.12-.26zM119.43 137.84c0 7-5.21 10.17-10.48 10.17a30.53 30.53 0 0 1-7.73-1.23V120H107v10.28c2.23-1 3.49-1.45 5.1-1.45 4 0 7.33 3 7.33 9m-5.89.64c0-4.37-2.48-5.57-4.56-5.57a9.46 9.46 0 0 0-2 .22v11.25a10 10 0 0 0 1.54.08c3.07-.06 5.02-1.87 5.02-5.97zM84.97 129.08l2.56-8.17-8.5-1.04-4.66 2.07 9.27 1.48-2.48 9.05-2.65-.75 1.37-5.88-9.85-1.97-6.2 2.76 10.5 2.79-1.79 10.72-3.56-1.53.66-6.16-10.84-3.59-10.42 4.63 10.92 5.62.61 12.27 4.46-3.97 12.46 7.58 16.77-23.95-8.63-1.96M109.87 168.89q-.48-1.23-1-2.82t-1-3.3q-.45 1.71-1 3.3t-1 2.82h-1.39q-.79-1.76-1.54-4t-1.41-4.89h1.71q.17.81.41 1.75t.5 1.88q.27.94.56 1.82t.55 1.52q.29-.81.57-1.71t.54-1.82q.26-.92.49-1.8t.4-1.65h1.32q.15.77.38 1.65t.48 1.8q.26.92.54 1.82t.57 1.71q.26-.65.54-1.52t.56-1.82q.27-.94.51-1.88t.41-1.75h1.64q-.67 2.62-1.42 4.88t-1.54 4zM123.59 164.43a5.63 5.63 0 0 1-.31 1.92 4.38 4.38 0 0 1-.87 1.47 3.81 3.81 0 0 1-1.33 1 4.39 4.39 0 0 1-3.36 0 3.8 3.8 0 0 1-1.33-1 4.39 4.39 0 0 1-.87-1.47 6.11 6.11 0 0 1 0-3.83 4.39 4.39 0 0 1 .87-1.48 3.81 3.81 0 0 1 1.33-1 4.39 4.39 0 0 1 3.36 0 3.82 3.82 0 0 1 1.33 1 4.37 4.37 0 0 1 .87 1.48 5.65 5.65 0 0 1 .31 1.91zm-1.66 0a3.83 3.83 0 0 0-.68-2.39 2.36 2.36 0 0 0-3.68 0 4.56 4.56 0 0 0 0 4.78 2.36 2.36 0 0 0 3.68 0 3.83 3.83 0 0 0 .68-2.39zM125.79 160.24q.55-.14 1.46-.29a12.63 12.63 0 0 1 2.09-.15 4.53 4.53 0 0 1 1.76.3 2.77 2.77 0 0 1 1.12.84 3.24 3.24 0 0 1 .59 1.29 7.5 7.5 0 0 1 .17 1.66v5h-1.59v-4.66a7.61 7.61 0 0 0-.11-1.41 2.36 2.36 0 0 0-.37-.94 1.45 1.45 0 0 0-.68-.52 3 3 0 0 0-1.06-.16h-1.05l-.45.06-.28.05v7.52h-1.59zM136.33 158.37a1 1 0 0 1-.73-.28 1.12 1.12 0 0 1 0-1.52 1.08 1.08 0 0 1 1.46 0 1.12 1.12 0 0 1 0 1.52 1 1 0 0 1-.73.28zm.81 10.52h-1.59V160h1.59zM139.8 160.24q.55-.14 1.46-.29a12.63 12.63 0 0 1 2.09-.15 4.53 4.53 0 0 1 1.76.3 2.77 2.77 0 0 1 1.12.84 3.24 3.24 0 0 1 .59 1.29 7.5 7.5 0 0 1 .17 1.66v5h-1.59v-4.66a7.61 7.61 0 0 0-.11-1.41 2.36 2.36 0 0 0-.37-.94 1.45 1.45 0 0 0-.68-.52 3 3 0 0 0-1.06-.16h-1.05l-.45.06-.28.05v7.52h-1.6zM155.15 168a4.23 4.23 0 0 1-.8.35 4 4 0 0 1-1.38.21 4.43 4.43 0 0 1-1.52-.26 3.29 3.29 0 0 1-1.24-.8 3.84 3.84 0 0 1-.84-1.34 5.38 5.38 0 0 1-.31-1.92 5.28 5.28 0 0 1 .29-1.79 4 4 0 0 1 .85-1.4 3.88 3.88 0 0 1 1.36-.92 4.7 4.7 0 0 1 1.82-.33 10.23 10.23 0 0 1 1.94.16q.83.16 1.4.3v7.95a3.76 3.76 0 0 1-1.06 3 4.8 4.8 0 0 1-3.22.92 8.7 8.7 0 0 1-1.58-.14 8.93 8.93 0 0 1-1.29-.33l.29-1.39a7.31 7.31 0 0 0 1.17.33 7 7 0 0 0 1.45.15 3 3 0 0 0 2-.56 2.32 2.32 0 0 0 .63-1.8zm0-6.61a5.22 5.22 0 0 0-.64-.13 7.73 7.73 0 0 0-1.09-.06 2.42 2.42 0 0 0-2 .84 3.39 3.39 0 0 0-.69 2.23 3.91 3.91 0 0 0 .2 1.32 2.6 2.6 0 0 0 .53.91 2.08 2.08 0 0 0 .77.53 2.44 2.44 0 0 0 .9.17 3.61 3.61 0 0 0 1.17-.18 2.86 2.86 0 0 0 .84-.42zM161 160.37a4.3 4.3 0 0 1 .88-.39 4.15 4.15 0 0 1 1.36-.21 4 4 0 0 1 1.7.34 3.54 3.54 0 0 1 1.26 1 4.22 4.22 0 0 1 .78 1.47 6.32 6.32 0 0 1 .27 1.88 5.63 5.63 0 0 1-.32 1.94 4.1 4.1 0 0 1-.9 1.46 4 4 0 0 1-1.41.92 5 5 0 0 1-1.85.33 11.24 11.24 0 0 1-2-.15q-.86-.16-1.41-.31v-12.78l1.59-.27zm0 7.13a5.07 5.07 0 0 0 .68.13 8.2 8.2 0 0 0 1.09.06 2.64 2.64 0 0 0 2.06-.85 3.45 3.45 0 0 0 .77-2.41 5.73 5.73 0 0 0-.14-1.28 2.88 2.88 0 0 0-.45-1 2.15 2.15 0 0 0-.8-.68 2.56 2.56 0 0 0-1.17-.25 3.18 3.18 0 0 0-1.2.22 3.28 3.28 0 0 0-.84.46zM177.32 164.43a5.63 5.63 0 0 1-.31 1.92 4.38 4.38 0 0 1-.87 1.47 3.81 3.81 0 0 1-1.33 1 4.39 4.39 0 0 1-3.36 0 3.8 3.8 0 0 1-1.33-1 4.39 4.39 0 0 1-.87-1.47 6.11 6.11 0 0 1 0-3.83 4.39 4.39 0 0 1 .87-1.48 3.81 3.81 0 0 1 1.33-1 4.39 4.39 0 0 1 3.36 0 3.82 3.82 0 0 1 1.33 1 4.37 4.37 0 0 1 .87 1.48 5.65 5.65 0 0 1 .31 1.91zm-1.66 0A3.83 3.83 0 0 0 175 162a2.36 2.36 0 0 0-3.68 0 4.56 4.56 0 0 0 0 4.78 2.36 2.36 0 0 0 3.68 0 3.83 3.83 0 0 0 .65-2.35zM186.6 168.63q-.55.14-1.45.29a12.46 12.46 0 0 1-2.08.15 4.43 4.43 0 0 1-1.73-.3 2.79 2.79 0 0 1-1.13-.85 3.44 3.44 0 0 1-.62-1.29 6.72 6.72 0 0 1-.19-1.65v-5h1.6v4.66a4 4 0 0 0 .51 2.33 2 2 0 0 0 1.73.7h1.04l.44-.05a1.28 1.28 0 0 0 .28-.06V160h1.59zM196.62 168.89q-.48-1.23-1-2.82t-1-3.3q-.45 1.71-1 3.3t-1 2.82h-1.39q-.79-1.76-1.54-4t-1.41-4.89H190q.17.81.41 1.75t.5 1.88q.27.94.56 1.82T192 167q.29-.81.57-1.71t.54-1.82q.26-.92.49-1.8t.4-1.67h1.32q.15.77.38 1.65t.48 1.8q.26.92.54 1.82t.57 1.71q.26-.65.54-1.52t.56-1.82q.27-.94.51-1.88t.41-1.75H201q-.67 2.62-1.42 4.88t-1.54 4z"/></a></svg>