<svg xmlns="http://www.w3.org/2000/svg" viewBox="0 0 294.8 150.2"><path opacity=".9" fill="#505553" d="M64.3 66c2.7-2.7 6-4 9.9-4 3.9 0 7.2 1.3 9.9 4s4.1 6 4.1 9.9c0 3.9-1.4 7.2-4.1 9.9-2.7 2.7-6 4-9.9 4-3.9 0-7.2-1.3-9.9-4s-4.1-6-4.1-9.9c.1-3.9 1.4-7.2 4.1-9.9zm16.3 3.5c-1.8-1.8-3.9-2.7-6.3-2.7-2.5 0-4.6.9-6.3 2.7-1.8 1.8-2.6 3.9-2.6 6.4 0 2.5.9 4.6 2.6 6.4 1.8 1.8 3.9 2.7 6.3 2.7 2.5 0 4.6-.9 6.3-2.7 1.8-1.8 2.6-3.9 2.6-6.4 0-2.5-.9-4.7-2.6-6.4zM98.2 66c2.7-2.7 6-4 9.9-4 3.9 0 7.2 1.3 9.9 4s4.1 6 4.1 9.9c0 3.9-1.4 7.2-4.1 9.9-2.7 2.7-6 4-9.9 4-3.9 0-7.2-1.3-9.9-4s-4.1-6-4.1-9.9c0-3.9 1.4-7.2 4.1-9.9zm16.2 3.5c-1.8-1.8-3.9-2.7-6.3-2.7-2.5 0-4.6.9-6.3 2.7-1.8 1.8-2.6 3.9-2.6 6.4 0 2.5.9 4.6 2.6 6.4 1.8 1.8 3.9 2.7 6.3 2.7 2.5 0 4.6-.9 6.3-2.7 1.8-1.8 2.6-3.9 2.6-6.4.1-2.5-.8-4.7-2.6-6.4zM135 40.3v48.6h-5V40.3h5z"/><path opacity=".5" fill="#96A29D" d="M145.1 40.5h2.6V66h.1c.8-1.5 1.9-2.7 3.3-3.6 1.4-.8 3-1.3 4.8-1.3 3.3 0 5.6.9 7 2.8 1.3 1.9 2 4.7 2 8.5v16.4h-2.6V72.6c0-1.4-.1-2.6-.2-3.5-.1-.9-.4-1.8-.8-2.7-.4-.9-1.1-1.6-2-2-.9-.4-2.1-.6-3.5-.6-5.3 0-7.9 4-7.9 11.9v13.4h-2.6V40.5zM188.3 61.2c4 0 7.4 1.4 10.1 4.1 2.8 2.7 4.1 6.1 4.1 10.1s-1.4 7.3-4.1 10.1-6.1 4.1-10.1 4.1c-3.9 0-7.2-1.4-9.9-4.1-2.8-2.8-4.1-6.1-4.1-9.9 0-3.9 1.4-7.3 4.1-10 2.7-3 6-4.4 9.9-4.4zm-.2 2.5c-3.2 0-5.8 1.2-8 3.5s-3.3 5.1-3.3 8.3c0 3.1 1.1 5.9 3.3 8.2 2.2 2.3 4.8 3.5 8 3.5 3.3 0 6.1-1.1 8.4-3.3 2.3-2.2 3.4-5 3.4-8.3 0-3.3-1.1-6.1-3.4-8.4-2.2-2.4-5-3.5-8.4-3.5zM228.5 61.8h2.6v19.1c0 .6-.2 1.4-.4 2.4-.3 1-.7 1.8-1.2 2.6-1.8 2.4-4.5 3.6-8.1 3.6s-6.3-1.2-8.1-3.6c-.5-.7-.9-1.6-1.2-2.6-.3-1-.4-1.8-.4-2.4V61.8h2.6v15.3c0 1.5.1 2.8.2 3.8s.4 2 .9 3.1c.4 1 1.2 1.8 2.2 2.3 1 .5 2.3.8 3.8.8 1.6 0 2.8-.3 3.8-.8s1.7-1.3 2.2-2.3c.4-1 .7-2 .9-3.1s.2-2.3.2-3.8V61.8zM256.1 65.6l-2.3 1.2c-.9-2-2.5-3.1-4.8-3.1-1.2 0-2.2.4-3.2 1.3-1 .8-1.4 1.8-1.4 3s.5 2.1 1.4 2.9c.9.7 2 1.3 3.3 1.8 1.3.5 2.6.9 3.9 1.5s2.4 1.4 3.3 2.6 1.4 2.7 1.4 4.5c0 2.5-.8 4.5-2.5 6.1s-3.8 2.4-6.2 2.4c-2.3 0-4.3-.6-6-1.9-1.7-1.3-2.8-3-3.4-5.2l2.6-.8c1.1 3.7 3.4 5.5 6.8 5.5 1.7 0 3.1-.6 4.3-1.8 1.2-1.2 1.8-2.6 1.8-4.3 0-1.5-.5-2.6-1.3-3.3-.9-.7-2.2-1.4-3.9-2-1.3-.5-2.2-.9-2.9-1.1-.7-.3-1.5-.7-2.4-1.4-.9-.6-1.6-1.3-2-2.1-.4-.8-.6-1.8-.6-2.9 0-2 .7-3.6 2.2-4.9 1.4-1.3 3.2-1.9 5.2-1.9 1.4 0 2.8.4 4.1 1.2 1.1.4 2 1.4 2.6 2.7zM291.2 75.6h-23.5c-.1 3.4.9 6.2 3 8.3 2.1 2.1 4.7 3.2 7.9 3.2 2 0 3.9-.6 5.5-1.7 1.7-1.1 3-2.6 4-4.5l2.2 1.3c-2.6 4.9-6.6 7.3-12.2 7.3-3.9 0-7.1-1.4-9.5-4.1-2.4-2.8-3.6-6.1-3.6-10.1 0-3.9 1.2-7.2 3.7-10 2.4-2.7 5.6-4.1 9.5-4.1 4 0 7.2 1.4 9.5 4.2 2.3 2.8 3.5 6.2 3.5 10.2zm-23.6-2.5h20.9c-.4-2.6-1.5-4.8-3.4-6.7-1.9-1.9-4.2-2.8-6.9-2.8s-5.1.9-7.2 2.8c-2 1.9-3.1 4.2-3.4 6.7z"/><path fill="#5F5E57" d="M21.5 75c0-35.6 26.2-65.2 60.4-70.5-2.5-.3-5-.4-7.6-.4C35.1 4.1 3.4 35.9 3.4 75c0 39.2 31.7 70.9 70.9 70.9 2.6 0 5.1-.1 7.6-.4-34.2-5.3-60.4-34.9-60.4-70.5zM109.2 109.3l-7.4-7.4c-4.7 4.8-10.6 8.4-17.3 10.2 2.7.6 5.5.9 8.4.9 5.7 0 11.2-1.3 16.3-3.7zM84.5 38c6.4 1.8 12.1 5.1 16.7 9.6l7.2-7.2c-4.8-2.2-10.1-3.3-15.5-3.3-2.9 0-5.7.3-8.4.9z"/><path fill="#5F5E57" d="M82.7 112.5c-2.7.6-5.5.9-8.4.9-21.2 0-38.4-17.2-38.4-38.4s17.2-38.4 38.4-38.4c2.9 0 5.7.3 8.4.9 3.2-.9 6.6-1.4 10.2-1.4 5.7 0 11.2 1.2 16.2 3.5l15.1-15.1C113.8 14.4 100.3 7.3 85.3 5 50 8.8 22.4 38.7 22.4 75s27.6 66.3 62.9 70.1c15.3-2.4 29.1-9.7 39.5-20.2L109.9 110c-5.2 2.5-11 3.9-17 3.9-3.6-.1-7-.6-10.2-1.4z"/><g fill="#5F5E57"><path d="M176.2 105c0 .6.2 1.1.4 1.5.2.4.5.7.8 1 .3.3.7.4 1.2.6.4.1.9.2 1.4.2.6 0 1.1-.1 1.5-.2.4-.1.8-.3 1-.6.3-.3.5-.5.6-.9.1-.3.2-.7.2-1 0-.5-.1-.9-.3-1.2-.2-.3-.5-.6-.9-.8-.4-.2-.8-.4-1.3-.5-.5-.1-1-.2-1.5-.4-.5-.1-1-.3-1.5-.4-.5-.2-.9-.4-1.3-.6-.4-.3-.7-.6-.9-1-.2-.4-.3-1-.3-1.6 0-.5.1-.9.3-1.3.2-.4.5-.8.8-1.1.4-.3.8-.6 1.4-.8.6-.2 1.2-.3 1.9-.3s1.4.1 2 .3c.6.2 1 .5 1.4.9.4.4.6.8.8 1.3.2.5.3 1 .3 1.5H183c0-.5-.1-.9-.3-1.3s-.4-.7-.7-.9c-.3-.2-.7-.4-1-.5s-.8-.2-1.2-.2c-.6 0-1.2.1-1.6.3-.4.2-.8.4-1 .7-.3.3-.4.6-.5.9-.1.3-.1.7-.1 1 .1.4.2.8.5 1 .3.3.6.5 1 .6.4.2.8.3 1.3.4.5.1 1 .2 1.4.3.5.1 1 .3 1.4.4.5.2.9.4 1.2.6s.6.6.9 1c.2.4.3 1 .3 1.6 0 1.2-.4 2.2-1.3 2.8s-2 1-3.6 1c-.7 0-1.3-.1-1.9-.3-.6-.2-1.1-.4-1.5-.8-.4-.4-.8-.8-1-1.3-.2-.5-.4-1.2-.4-1.9h1.3zM193.4 102.4c-.2-.7-.5-1.3-1-1.7-.5-.4-1.1-.6-1.8-.6-.6 0-1 .1-1.5.3-.4.2-.7.5-1 .9-.3.4-.4.8-.6 1.3-.1.5-.2 1-.2 1.5s.1 1 .2 1.5.3.9.6 1.3.6.7 1 .9c.4.2.9.3 1.5.3.8 0 1.5-.2 2-.7.5-.5.8-1.1.9-1.9h1.2c-.1.5-.3 1-.5 1.4-.2.4-.5.8-.8 1.1s-.7.6-1.2.7c-.5.2-1 .3-1.6.3-.8 0-1.4-.1-2-.4-.6-.3-1-.6-1.4-1.1-.4-.4-.6-1-.8-1.6s-.3-1.3-.3-2 .1-1.3.3-1.9c.2-.6.5-1.1.8-1.6.4-.5.8-.8 1.4-1.1.5-.3 1.2-.4 1.9-.4 1.1 0 2 .3 2.7.8.7.5 1.1 1.3 1.3 2.5h-1.1zM196.9 108.9V95.7h1.1v5c.4-.5.9-.8 1.4-1.1.5-.3 1-.4 1.7-.4.6 0 1.1.1 1.6.3.5.2.9.6 1.3 1.1.2.3.4.7.4 1.1s.1.7.1 1.1v6.2h-1.1v-6.2c0-.9-.2-1.5-.6-1.9-.4-.4-1-.6-1.9-.6-.3 0-.7.1-.9.2-.3.1-.5.2-.8.4l-.6.6c-.2.2-.3.5-.4.7-.1.3-.2.6-.2.9v6h-1.1zM207.8 104.4c0 .5.1 1 .2 1.5s.3.9.6 1.2c.3.3.6.6 1 .8s.9.3 1.4.3c.7 0 1.3-.2 1.9-.6s.9-.9 1-1.6h1.2c-.1.5-.3.9-.5 1.3s-.5.7-.8 1c-.3.3-.7.5-1.2.7-.5.2-1 .2-1.6.2-.8 0-1.4-.1-2-.4-.6-.3-1-.6-1.4-1.1-.4-.4-.6-1-.8-1.6s-.3-1.3-.3-2 .1-1.4.3-2 .5-1.1.9-1.6.8-.8 1.4-1.1c.5-.3 1.2-.4 1.8-.4 1.3 0 2.3.5 3.1 1.4.7.9 1.1 2.2 1.1 3.9h-7.3zm6.2-.9c0-.5-.1-.9-.2-1.3s-.3-.8-.6-1.1c-.3-.3-.6-.5-.9-.7s-.8-.3-1.3-.3-.9.1-1.3.3c-.4.2-.7.4-1 .7-.3.3-.5.7-.6 1.1s-.3.8-.3 1.3h6.2zM216.3 99.4h1.2l3.1 8.2 3.1-8.2h1.2l-3.7 9.5H220l-3.7-9.5zM227.2 104.4c0 .5.1 1 .2 1.5s.3.9.6 1.2c.3.3.6.6 1 .8s.9.3 1.4.3c.7 0 1.3-.2 1.9-.6s.9-.9 1-1.6h1.2c-.1.5-.3.9-.5 1.3s-.5.7-.8 1c-.3.3-.7.5-1.2.7-.5.2-1 .2-1.6.2-.8 0-1.4-.1-2-.4-.6-.3-1-.6-1.4-1.1-.4-.4-.6-1-.8-1.6s-.3-1.3-.3-2 .1-1.4.3-2 .5-1.1.9-1.6.8-.8 1.4-1.1c.5-.3 1.2-.4 1.8-.4 1.3 0 2.3.5 3.1 1.4.7.9 1.1 2.2 1.1 3.9h-7.3zm6.2-.9c0-.5-.1-.9-.2-1.3s-.3-.8-.6-1.1c-.3-.3-.6-.5-.9-.7s-.8-.3-1.3-.3-.9.1-1.3.3c-.4.2-.7.4-1 .7-.3.3-.5.7-.6 1.1s-.3.8-.3 1.3h6.2zM237.9 108.9h-1.1v-9.5h1.1v1.3c.4-.5.9-.8 1.4-1.1.5-.3 1-.4 1.7-.4.6 0 1.1.1 1.6.3.5.2.9.6 1.3 1.1.2.3.4.7.4 1.1s.1.7.1 1.1v6.2h-1.1v-6.2c0-.9-.2-1.5-.6-1.9-.4-.4-1-.6-1.9-.6-.3 0-.7.1-.9.2-.3.1-.5.2-.8.4l-.6.6c-.2.2-.3.5-.4.7-.1.3-.2.6-.2.9V108.9zM247.1 97.3v-1.6h1.2v1.6h-1.2zm0 11.6v-9.5h1.1v9.5h-1.1zM252.2 108.9h-1.1v-9.5h1.1v1.3c.4-.5.9-.8 1.4-1.1.5-.3 1-.4 1.7-.4.6 0 1.1.1 1.6.3.5.2.9.6 1.3 1.1.2.3.4.7.4 1.1s.1.7.1 1.1v6.2h-1.1v-6.2c0-.9-.2-1.5-.6-1.9-.4-.4-1-.6-1.9-.6-.3 0-.7.1-.9.2-.3.1-.5.2-.8.4l-.6.6c-.2.2-.3.5-.4.7-.1.3-.2.6-.2.9V108.9zM268.6 99.4h1.1v8.6c0 .6-.1 1.2-.2 1.8-.1.6-.4 1.1-.7 1.5-.3.4-.8.8-1.4 1.1-.6.3-1.3.4-2.2.4-.7 0-1.3-.1-1.8-.3-.5-.2-.9-.4-1.2-.7-.3-.3-.6-.6-.7-.9-.2-.3-.3-.6-.3-.9h1.2c.1.4.2.6.4.9.2.2.4.4.7.5.3.1.5.2.8.3s.6.1 1 .1c.7 0 1.3-.1 1.8-.4.5-.3.8-.6 1-1 .2-.4.4-.9.5-1.4.1-.5.1-1.1.1-1.6-.4.6-.8 1-1.5 1.3-.6.3-1.3.5-1.9.5-.7 0-1.4-.1-1.9-.4s-1-.6-1.3-1.1c-.3-.5-.6-1-.8-1.6-.2-.6-.3-1.2-.3-1.9s.1-1.4.2-2c.2-.6.4-1.1.8-1.6.3-.4.8-.8 1.3-1.1s1.2-.4 2-.4c.3 0 .6 0 .9.1.3.1.6.2.9.4.3.2.6.4.8.6.3.2.5.5.6.8v-1.6zm0 4.8c0-.6-.1-1.1-.2-1.6s-.3-.9-.6-1.3-.6-.6-1-.9-.9-.3-1.4-.3c-.5 0-.9.1-1.3.2-.4.2-.7.4-1 .7-.3.3-.5.7-.7 1.2-.2.5-.2 1-.2 1.6 0 .6 0 1.2.1 1.7s.3 1 .6 1.4c.3.4.6.7 1 .9.4.2.9.3 1.5.3.5 0 1-.1 1.4-.3.4-.2.7-.5 1-.9.3-.4.5-.8.6-1.3.2-.3.2-.8.2-1.4zM273.2 104.4c0 .5.1 1 .2 1.5s.3.9.6 1.2c.3.3.6.6 1 .8s.9.3 1.4.3c.7 0 1.3-.2 1.9-.6s.9-.9 1-1.6h1.2c-.1.5-.3.9-.5 1.3s-.5.7-.8 1c-.3.3-.7.5-1.2.7-.5.2-1 .2-1.6.2-.8 0-1.4-.1-2-.4-.6-.3-1-.6-1.4-1.1-.4-.4-.6-1-.8-1.6s-.3-1.3-.3-2 .1-1.4.3-2 .5-1.1.9-1.6.8-.8 1.4-1.1c.5-.3 1.2-.4 1.8-.4 1.3 0 2.3.5 3.1 1.4.7.9 1.1 2.2 1.1 3.9h-7.3zm6.2-.9c0-.5-.1-.9-.2-1.3s-.3-.8-.6-1.1c-.3-.3-.6-.5-.9-.7s-.8-.3-1.3-.3-.9.1-1.3.3c-.4.2-.7.4-1 .7-.3.3-.5.7-.6 1.1s-.3.8-.3 1.3h6.2zM283.8 108.9h-1.1v-9.5h1.1v1.3c.4-.5.9-.8 1.4-1.1.5-.3 1-.4 1.7-.4.6 0 1.1.1 1.6.3.5.2.9.6 1.3 1.1.2.3.4.7.4 1.1s.1.7.1 1.1v6.2h-1.1v-6.2c0-.9-.2-1.5-.6-1.9-.4-.4-1-.6-1.9-.6-.3 0-.7.1-.9.2-.3.1-.5.2-.8.4l-.6.6c-.2.2-.3.5-.4.7-.1.3-.2.6-.2.9V108.9z"/></g></svg>