<?xml version="1.0" encoding="utf-8"?>
<!-- Generator: Adobe Illustrator 18.1.1, SVG Export Plug-In . SVG Version: 6.00 Build 0)  -->
<!DOCTYPE svg PUBLIC "-//W3C//DTD SVG 1.1//EN" "http://www.w3.org/Graphics/SVG/1.1/DTD/svg11.dtd">
<svg version="1.1" id="Layer_1" xmlns="http://www.w3.org/2000/svg" xmlns:xlink="http://www.w3.org/1999/xlink" x="0px" y="0px"
	 viewBox="0 0 353 164" enable-background="new 0 0 353 164" xml:space="preserve">
<g>
	<path fill="#FFFFFF" d="M70.1,71.6c10.1,0,17.2,7.2,17.2,17.2c0,10-7.2,17.2-17.2,17.2s-17.2-7.2-17.2-17.2
		C52.9,78.9,60.1,71.6,70.1,71.6z M70.1,102.3c8,0,13-6,13-13.4c0-7.4-5-13.4-13-13.4s-13,6-13,13.4
		C57.2,96.2,62.1,102.3,70.1,102.3z"/>
	<path fill="#FFFFFF" d="M110.8,71.6c10.1,0,17.2,7.2,17.2,17.2c0,10-7.2,17.2-17.2,17.2s-17.2-7.2-17.2-17.2
		C93.6,78.9,100.7,71.6,110.8,71.6z M110.8,102.3c8,0,13-6,13-13.4c0-7.4-5-13.4-13-13.4s-13,6-13,13.4
		C97.8,96.2,102.8,102.3,110.8,102.3z"/>
	<path fill="#FFFFFF" d="M136.4,51.7h4.3v53.6h-4.3V51.7z"/>
	<path fill="#FFFFFF" d="M150.6,51.7h4.3v26.6h0.1c1.7-3.6,5.9-6.6,11.2-6.6c10.2,0,12.5,6.9,12.5,14.1v19.5h-4.3V86
		c0-5.3-1.5-10.5-8.2-10.5c-6.3,0-11.3,4.4-11.3,13.4v16.4h-4.3V51.7z"/>
	<path fill="#FFFFFF" d="M203.7,71.6c10.1,0,17.2,7.2,17.2,17.2c0,10-7.2,17.2-17.2,17.2s-17.2-7.2-17.2-17.2
		C186.5,78.9,193.7,71.6,203.7,71.6z M203.7,102.3c8,0,13-6,13-13.4c0-7.4-5-13.4-13-13.4s-13,6-13,13.4
		C190.8,96.2,195.7,102.3,203.7,102.3z"/>
	<path fill="#FFFFFF" d="M256.7,96c0,2.4,0.4,7.5,0.4,9.2h-4.3c-0.1-2.4-0.1-5.1-0.3-5.7h-0.2c-1.7,3.6-5.9,6.6-11.2,6.6
		c-10.2,0-12.5-6.9-12.5-14.1V72.5h4.3v19.3c0,5.3,1.5,10.5,8.2,10.5c6.3,0,11.3-4.4,11.3-13.4V72.5h4.3V96z"/>
	<path fill="#FFFFFF" d="M267.2,96.9c1.8,3.5,5.7,5.4,9.5,5.4c3.7,0,7.5-2.3,7.5-6c0-9-19.4-2.7-19.4-15.2c0-6.4,5.8-9.4,11.2-9.4
		c5.3,0,9.4,2,11.6,6.2l-3.8,2.3c-1.6-3-3.9-4.6-7.7-4.6c-3,0-6.9,1.8-6.9,5.2c0,8.9,19.4,2,19.4,15.2c0,6.7-5.6,10.1-11.8,10.1
		c-5.6,0-10.6-2.1-13.2-6.7L267.2,96.9z"/>
	<path fill="#FFFFFF" d="M324.9,99.1c-3.3,5-8.4,7-14.2,7c-10,0-16.6-7.2-16.6-17.3c0-9.8,6.8-17.1,16.4-17.1
		c10.1,0,15.4,7.7,15.4,15.3v3h-27.5c0,3.5,2.5,12.3,12.4,12.3c4.3,0,8.9-2.3,11-5.8L324.9,99.1z M321.6,86.1
		c0-5.8-5-10.6-11.3-10.6c-9.3,0-11.9,8.9-11.9,10.6H321.6z"/>
</g>
<g>
	<path fill="#FFFFFF" d="M99.5,116.3c-7.7,9.2-17.7,13.6-28.9,13.6c-24.2,0-41.3-17.3-41.3-41.3s17.2-41.3,41.3-41.3
		c11.4,0,21.6,4.9,29.3,13.6l-8.2,6.1c-6-6.5-12.9-10.5-21.1-10.5c-19.2,0-31.1,14.5-31.1,32.1c0,17.7,11.9,32.1,31.1,32.1
		c8.5,0,15.8-4.4,21.1-10.9L99.5,116.3z"/>
</g>
</svg>
