<svg id="Laag_1" data-name="Laag 1" xmlns="http://www.w3.org/2000/svg" viewBox="0 0 212.6 212.6" xmlns:xlink="http://www.w3.org/1999/xlink"><defs><style>.cls-1{fill:#143351}a:hover .cls-1{fill:#d2232a}</style></defs><title>logo_davl</title><a xlink:href="http://www.davlstudio.com"><path class="cls-1" d="M69.61 52.05c5.16-.45 8.9-5.79 8.36-11.93s-5.14-10.74-10.3-10.29-8.89 5.79-8.36 11.93 5.16 10.75 10.3 10.29zM197.31 115.85l-74.43 6.51-3.49-39.97 7.18-.61 2.87 32.76 60.04-5.25-7.22-82.54L122.22 32l2.49 28.12-7.19.64-3.11-35.32 74.41-6.51 8.49 96.92z"/><path class="cls-1" d="M160.54 68.53l-25.43-11.98.73 8.75-40.2 3.48.89 10.17 40.2-3.55.77 8.76 23.04-15.63zM88.6 69.39l-8.6.75.15 1.74-11.07 1-1.51-17.3s-14.25-8.32-13.82-7.29l-24.13 2.09L18 70.51 22.28 73l-1.21 2.3 2.07 1.12-4 8 4.09 2.46 8.51-16.38-3-1.79L34 59.09l14.44-1.26-15.03 27.94L35.52 109l-21.89 12.32 4.24 9.78 27.93-15.35-.68-20.31L63 104.33l.38 22.79 11.13-.83L71.91 97 52.62 87l7.49-13.16.71 8.16 28.67-2.51z"/><g><path class="cls-1" d="M17 192.76l-.78 2.82h-2.59l3.34-11h3.25l3.42 11h-2.69l-.85-2.82zm2.78-1.85l-.68-2.33c-.19-.65-.39-1.47-.55-2.11-.16.65-.33 1.48-.5 2.11l-.65 2.33zM25.09 184.76a21.71 21.71 0 0 1 3.3-.23 5.6 5.6 0 0 1 3.55.86 2.78 2.78 0 0 1 1 2.31 2.9 2.9 0 0 1-1.94 2.69 2.74 2.74 0 0 1 1.46 2c.34 1.25.67 2.68.88 3.11h-2.51a14.76 14.76 0 0 1-.75-2.55c-.31-1.38-.78-1.74-1.8-1.76h-.73v4.31h-2.46zm2.46 4.72h1c1.24 0 2-.62 2-1.58s-.68-1.51-1.82-1.51a4.74 4.74 0 0 0-1.12.08zM42.7 195.28a7.27 7.27 0 0 1-2.8.47c-3.79 0-5.74-2.38-5.74-5.5 0-3.74 2.67-5.81 6-5.81a6.2 6.2 0 0 1 2.7.49l-.52 2a5.22 5.22 0 0 0-2.08-.41 3.6 3.6 0 0 0 0 7.2 5.89 5.89 0 0 0 2.08-.36zM46.84 184.61v4.21h4.08v-4.21h2.48v11h-2.48V191h-4.08v4.59h-2.47v-11zM58.06 184.61v11h-2.48v-11zM62.33 186.7h-3v-2.08h8.47v2.08h-3v8.88h-2.47zM75.64 190.94h-4v2.6h4.5v2h-7v-11h6.75v2h-4.28v2.28h4zM85.85 195.28a7.27 7.27 0 0 1-2.8.47c-3.79 0-5.74-2.38-5.74-5.5 0-3.74 2.67-5.81 6-5.81a6.2 6.2 0 0 1 2.7.49l-.52 2a5.22 5.22 0 0 0-2.08-.41 3.6 3.6 0 0 0 0 7.2 5.9 5.9 0 0 0 2.08-.36zM89.85 186.7h-3v-2.08h8.43v2.08h-3v8.88h-2.43zM99.11 184.61v6.29c0 1.9.73 2.86 2 2.86s2-.91 2-2.86v-6.29h2.47v6.15c0 3.38-1.71 5-4.57 5s-4.37-1.54-4.37-5v-6.12zM107.74 184.76a21.71 21.71 0 0 1 3.3-.23 5.6 5.6 0 0 1 3.55.86 2.78 2.78 0 0 1 1 2.31 2.9 2.9 0 0 1-1.94 2.68 2.74 2.74 0 0 1 1.47 2c.34 1.25.67 2.68.88 3.11h-2.54a14.76 14.76 0 0 1-.75-2.55c-.31-1.38-.78-1.74-1.8-1.76h-.73v4.31h-2.46zm2.46 4.72h1c1.24 0 2-.62 2-1.58s-.68-1.51-1.82-1.51a4.74 4.74 0 0 0-1.12.08zM123.91 190.94h-4v2.6h4.5v2h-7v-11h6.75v2h-4.28v2.28h4zM143.69 184.78a22 22 0 0 1 3.33-.24 7.15 7.15 0 0 1 4.51 1.17 4.85 4.85 0 0 1 1.85 4.13 5.6 5.6 0 0 1-1.81 4.44 7.92 7.92 0 0 1-5.08 1.42 21.06 21.06 0 0 1-2.81-.16zm2.47 8.93a4.48 4.48 0 0 0 .86.05c2.26 0 3.74-1.22 3.74-3.84a3.17 3.17 0 0 0-3.48-3.48 5.32 5.32 0 0 0-1.12.1zM161.54 190.94h-4v2.6H162v2h-7v-11h6.75v2h-4.25v2.28h4zM163.79 193a6.28 6.28 0 0 0 2.75.68c1.14 0 1.74-.47 1.74-1.19s-.52-1.07-1.84-1.53c-1.82-.65-3-1.66-3-3.25 0-1.87 1.58-3.29 4.15-3.29a6.43 6.43 0 0 1 2.8.55l-.55 2a5.16 5.16 0 0 0-2.28-.52c-1.07 0-1.59.5-1.59 1.06s.6 1 2 1.55c1.94.72 2.83 1.72 2.83 3.27 0 1.84-1.4 3.4-4.41 3.4a7.15 7.15 0 0 1-3.11-.68zM175 184.61v11h-2.47v-11zM186.29 195.07a12.29 12.29 0 0 1-3.66.62 6.18 6.18 0 0 1-4.46-1.46 5.49 5.49 0 0 1-1.55-4c0-3.64 2.67-5.72 6.26-5.72a7.93 7.93 0 0 1 3 .52l-.52 2a5.75 5.75 0 0 0-2.54-.47 3.57 3.57 0 0 0-.18 7.14 3.81 3.81 0 0 0 1.2-.15v-2.31h-1.69v-1.94h4.08zM188.23 195.58v-11h2.9l2.28 4a34.83 34.83 0 0 1 1.79 3.76 45.55 45.55 0 0 1-.19-4.59v-3.19h2.28v11h-2.6l-2.34-4.23a37.25 37.25 0 0 1-1.9-3.87h-.07c.08 1.46.11 3 .11 4.8v3.3zM134.72 184.48V189H139v1.92h-4.31v4.55h-2v-4.55h-4.31V189h4.31v-4.49z"/></g><g><path class="cls-1" d="M18.56 153.77c1.41 0 3.28.06 4.27.12a8.72 8.72 0 0 1 5.35 2.21c2.26 2 3.35 4.87 3.35 8.88a11.93 11.93 0 0 1-2.46 7.72 8.58 8.58 0 0 1-6 3.21c-.91.06-2.07.13-3.52.13h-6v-22.27zm.07 18.61h2.64c3.24 0 4.72-2.27 4.72-7 0-2.59-.25-4.78-1.23-6.25a4.16 4.16 0 0 0-3.88-1.86h-2.25zM45.93 153.71L53.3 176h-5l-1.65-5.29h-6.91L38.09 176h-4.91l7.67-22.33zM45.46 167s-.77-2.34-1.28-4.49c-.24-1-.94-3.94-.94-3.94l-1.11 4.29c-.44 1.61-.74 2.66-1.24 4.13zM57.46 153.77l3.87 11.59c.31 1 .71 2.24 1.08 3.88a41.72 41.72 0 0 1 1.35-4.46l4-11h4.94l-8.17 22.42h-4.27l-7.94-22.43zM80.1 153.77v18.55h8.38V176H75.29v-22.23zM111.42 155.69l-1.16 1.89a8.86 8.86 0 0 0-5.35-1.86c-2.76 0-4.38 1.38-4.38 3.62 0 1.76 1.05 2.79 3.64 3.59l2.54.8a7.4 7.4 0 0 1 3.87 2.21 6.1 6.1 0 0 1 1.44 3.88 6.47 6.47 0 0 1-3 5.29 8.48 8.48 0 0 1-4.93 1.34 12.92 12.92 0 0 1-7-2l1.15-2.05a9.61 9.61 0 0 0 5.9 1.89 5.11 5.11 0 0 0 3.49-1 3.77 3.77 0 0 0 1.57-3.14c0-2-1.29-3.3-3.94-4.1l-2.21-.67c-2-.61-3.05-1.06-3.91-2a5.12 5.12 0 0 1-1.38-3.59c0-3.75 2.86-6.31 7.12-6.31a11.52 11.52 0 0 1 6.54 2.21zM114.4 154.05h14.55v2.21h-6.12V176h-2.53v-19.73h-5.9zM132.24 154.05h2.6v14.07a19.11 19.11 0 0 0 .23 3.36c.38 1.73 2 2.69 4.45 2.69 1.82 0 3.2-.48 3.88-1.38s.82-1.7.82-3.75v-15h2.59v15.28c0 3.15-.32 4.2-1.66 5.39s-3.1 1.69-5.77 1.69c-3.39 0-5.48-1.09-6.5-3.18-.48-1-.65-1.4-.65-3.84zM152.1 154.25h4.39c3.36 0 4.9.16 7.05 1.69 2.5 1.8 3.71 4.94 3.71 9.23 0 3.84-1 6.5-2.5 8.14-1.92 2.15-3.5 2.72-6.92 2.72h-5.73zm2.63 2.15v17.46h2.35a14 14 0 0 0 2.69-.16 4.63 4.63 0 0 0 3.18-2.11 11.6 11.6 0 0 0 1.47-6.09c0-3.3-.41-5.35-1.89-7.12s-2.85-2-5.16-2zM172.26 154.05h2.56v22h-2.56zM188.4 153.67a7.93 7.93 0 0 1 6.92 3.58c1.38 2.05 2 4.62 2 8.14 0 4.23-1 6.89-3.2 8.94a7.69 7.69 0 0 1-5.57 2.11 8 8 0 0 1-6.25-2.79c-1.74-2-2.63-5-2.63-8.72-.02-6.93 3.33-11.26 8.73-11.26zm0 2.12a5.22 5.22 0 0 0-4.71 2.56 12.62 12.62 0 0 0-1.12 6.05c0 3.3.54 6.18 1.41 7.66a5.73 5.73 0 0 0 4.68 2.37 4.85 4.85 0 0 0 4.1-1.89c1.09-1.38 1.6-3.14 1.6-6.76 0-3.24-.32-5.44-1.06-7a5.15 5.15 0 0 0-4.9-2.99z"/></g></a></svg>