<svg id="Laag_1" data-name="Laag 1" xmlns="http://www.w3.org/2000/svg" viewBox="0 0 212.6 212.6" xmlns:xlink="http://www.w3.org/1999/xlink">
  <defs>
    <style>
      .cls-1 {
        fill: #143351;
      }

      .cls-2 {
        fill: #143351;
      }
      a:hover .cls-1 {
        fill: #f18b18;
      }
      a:hover .cls-2 {
        fill: #293d79;
      }
    </style>
  </defs>
  <title>logo_frisia</title>
    <a xlink:href="http://frisiamakelaars.nl/">
      <g>
        <path class="cls-1" d="M89.24,131.39c9.21,1.06,18.39,1.72,27.78-.73,1.49-2.89,2.9-5.86,4.54-8.71.8-1.39,1.77-3.21,3.07-3.67,4.26-1.49,6.07-4.85,7.56-8.66,1.43-.51,2.8-1.09,4.22-1.49a3.39,3.39,0,0,0,2.72-4.1c-.29-2.24-1.76-2.95-3.89-2.92-5.16.06-10.33,0-15.49,0a11.66,11.66,0,0,1-8.26-2.87c1.89-1.42,3.4-3,5.26-3.82a4.64,4.64,0,0,0,3.07-3.49c.95-3.84,2-7.67,2.93-11.51a23.55,23.55,0,0,0-.43-12.67,23,23,0,0,1-.48-3.4c5.41,1.46,10.4,3.11,15.52,4.08a40.64,40.64,0,0,0,11.35.6c7.08-.69,11-6,9.86-12.67-1.49-1.73-3.49-2.19-5.74-2.34A75.45,75.45,0,0,0,133,54.5c-10,2-19.94,4.69-30,6.26a118.64,118.64,0,0,1-34.76.61,124,124,0,0,1-12.82-2c.9-.12,1.8-.31,2.71-.36,6.63-.35,13.34-.19,19.89-1.11,9.8-1.37,19.55-3.23,29.22-5.35,7.88-1.72,15.61-4.19,23.43-6.21A72.26,72.26,0,0,1,151.83,44c1.65.07,3.31,0,4.88,0,4-6.47,3-10.44-3.94-12.79a49.69,49.69,0,0,0-15-2.9c-11.29-.14-22.6.43-33.89,1-4.62.22-9.19,1.18-13.8,1.66a15,15,0,0,1-6-.61c8.09-1.9,16.14-4,24.29-5.64,11.06-2.19,22.2-4.13,33.55-3.46,6.26.37,12.59.81,18.34,3.78,5.9,3,7.44,8.6,4,14.17-.53.84-1.09,1.67-1.7,2.46s-1.49,1.78-2.44,2.91c1.38.64,2.68,1.13,3.87,1.81,5.92,3.38,7.13,10.33,2.23,15a76.94,76.94,0,0,1-12.43,9.91c-8,5-14.05,11.43-17.33,20.38-.73,2-1.84,3.85-2.91,6a34.9,34.9,0,0,1,3.6.76c4.66,1.54,6.2,4.78,4.12,9.35q-3.29,7.24-7.15,14.23a9.85,9.85,0,0,1-3.55,3.14c-2,1.22-3.85,2.27-5.09,4.49-2.21,3.95-6.17,5.29-10.7,5.74l-5.15,9.81-3.47-.87,1.94-9C101.38,135.26,95,134.79,89.24,131.39Zm36.82-32.81,8.73-21.91c-2.41-1.4-4.75-2.76-8-2.58L120.85,97Z"/>
        <path class="cls-1" d="M134.68,36.65c-7.19,1.5-14.38,3-21.58,4.49-9.2,1.87-18.36,4-27.64,5.44-12.1,1.83-24.27,3.67-36.58,1.67l-24.8-4L24.17,43c3.17,0,6.34.05,9.5,0,8.46-.17,16.94-.08,25.37-.68,11.22-.79,22.42-2.08,33.61-3.26,7.56-.8,15.09-2,22.66-2.61,6.4-.55,12.84-.61,19.26-.88Z"/>
        <path class="cls-1" d="M75.14,101.28l24.38-4.19c-3,3.42-6.43,5.75-10.67,5.72S80.13,104,75.14,101.28Z"/>
      </g>
      <g>
        <path class="cls-2" d="M62,161.41H49v10.26H59.61v5.18H49v17.43H42.67V156.23H62.78Z"/>
        <path class="cls-2" d="M77.86,171.72c-.29-.11-.56-.2-.82-.27a3.3,3.3,0,0,0-.87-.11,5,5,0,0,0-3.36,1.21,5.61,5.61,0,0,0-1.88,2.93v18.8h-6V174.65a28.89,28.89,0,0,0-.28-4.43,19.31,19.31,0,0,0-.71-3.06l5.56-1.42a9.3,9.3,0,0,1,1,4.4,12.05,12.05,0,0,1,3.34-3.4,7,7,0,0,1,3.75-1.06,4.69,4.69,0,0,1,2.15.43Z"/>
        <path class="cls-2" d="M90.46,158.32a3.85,3.85,0,0,1-1.18,2.82,3.94,3.94,0,0,1-2.9,1.18,3.67,3.67,0,0,1-2.77-1.18,3.88,3.88,0,0,1-1.13-2.82,4,4,0,0,1,4-4.08,3.77,3.77,0,0,1,2.77,1.15A4,4,0,0,1,90.46,158.32Zm-7.09,36V166.92l6.1-1.1v28.47Z"/>
        <path class="cls-2" d="M116.49,185.58a8.93,8.93,0,0,1-.82,3.88,8.58,8.58,0,0,1-2.32,3,10.71,10.71,0,0,1-3.58,1.91,14.9,14.9,0,0,1-4.58.67,18.92,18.92,0,0,1-5.29-.78A26.46,26.46,0,0,1,94.52,192l2.15-4.35q.91.54,2,1a24.57,24.57,0,0,0,2.28,1,12,12,0,0,0,4.75.91,5.67,5.67,0,0,0,1.83-.28,4.23,4.23,0,0,0,1.42-.79,3.64,3.64,0,0,0,.93-1.24,3.79,3.79,0,0,0,.33-1.61,3.09,3.09,0,0,0-1.07-2.51,7.87,7.87,0,0,0-3.44-1.38l-3.36-.73a8.52,8.52,0,0,1-4.9-2.63,7.33,7.33,0,0,1-1.73-5,8.52,8.52,0,0,1,.75-3.6A8.14,8.14,0,0,1,98.54,168a9.69,9.69,0,0,1,3.26-1.81,13.11,13.11,0,0,1,4.22-.64,16.62,16.62,0,0,1,5.13.74,25.29,25.29,0,0,1,4.06,1.68l-2,4.19a19.79,19.79,0,0,0-3.56-1.54,11.11,11.11,0,0,0-3.26-.5,4.62,4.62,0,0,0-3.09,1,3.23,3.23,0,0,0-1.15,2.59,2.53,2.53,0,0,0,.83,2,7.51,7.51,0,0,0,2.93,1.3l3.47.89a13.18,13.18,0,0,1,3.47,1.36A7.9,7.9,0,0,1,115,181a6.17,6.17,0,0,1,1.13,2.18A8.71,8.71,0,0,1,116.49,185.58Z"/>
        <path class="cls-2" d="M128.86,158.32a3.85,3.85,0,0,1-1.18,2.82,3.94,3.94,0,0,1-2.9,1.18,3.67,3.67,0,0,1-2.77-1.18,3.88,3.88,0,0,1-1.13-2.82,4,4,0,0,1,4-4.08,3.77,3.77,0,0,1,2.77,1.15A4,4,0,0,1,128.86,158.32Zm-7.09,36V166.92l6.1-1.1v28.47Z"/>
        <path class="cls-2" d="M154.14,195.38a6.86,6.86,0,0,1-2.3-1.42,5.75,5.75,0,0,1-1.49-2.26,9.68,9.68,0,0,1-3.56,2.63,11.08,11.08,0,0,1-4.1.73q-4.81,0-7-2.34a8.44,8.44,0,0,1-2.23-6,8.21,8.21,0,0,1,3.5-7.26q3.5-2.4,10.25-2.4h1.88v-1.48a7.68,7.68,0,0,0-.7-3.65q-.7-1.26-3.17-1.26a9.22,9.22,0,0,0-3,.5,19.78,19.78,0,0,0-2.69,1.12q-.59.29-1.25.68t-1.41.9l-2.69-4.35a27.77,27.77,0,0,1,5.91-2.87,17.51,17.51,0,0,1,5.91-.91q6.61,0,8.49,4.62.11.38.19.75c.05.25.1.54.13.86s.06.69.08,1.11,0,.91,0,1.46v2.63l-.11,8q0,1.42.07,2.39a6.72,6.72,0,0,0,.31,1.68,3.71,3.71,0,0,0,.73,1.26,6.89,6.89,0,0,0,1.32,1.11ZM149,181.2c-.52,0-.89-.05-1.1-.05a18.56,18.56,0,0,0-3.77.32,6.28,6.28,0,0,0-2.42,1,3.67,3.67,0,0,0-1.29,1.65,6.3,6.3,0,0,0-.39,2.31,4.56,4.56,0,0,0,1,3.16,3.59,3.59,0,0,0,2.82,1.14,5.22,5.22,0,0,0,2.77-.8,7.71,7.71,0,0,0,2.26-2.12Z"/>
      </g>
    </a>
</svg>
