<svg id="Laag_1" data-name="Laag 1" xmlns="http://www.w3.org/2000/svg" viewBox="0 0 212.6 212.6" xmlns:xlink="http://www.w3.org/1999/xlink">
  <defs>
    <style>
      .cls-1 {
        fill: #143351;
      }
      a:hover .cls-1 {
        fill: #d2232a;
      }
    </style>
  </defs>
  <title>logo_davl</title>
    <a xlink:href="http://www.davlstudio.com">
      <g>
        <path class="cls-1" d="M69.61,52.05c5.16-.45,8.9-5.79,8.36-11.93S72.83,29.38,67.67,29.83s-8.89,5.79-8.36,11.93S64.47,52.51,69.61,52.05Z"/>
        <polygon class="cls-1" points="197.31 115.85 122.88 122.36 119.39 82.39 126.57 81.78 129.44 114.54 189.48 109.29 182.26 26.75 122.22 32 124.71 60.12 117.52 60.76 114.41 25.44 188.82 18.93 197.31 115.85"/>
        <polygon class="cls-1" points="160.54 68.53 135.11 56.55 135.84 65.3 95.64 68.78 96.53 78.95 136.73 75.4 137.5 84.16 160.54 68.53"/>
        <path class="cls-1" d="M88.6,69.39,80,70.14l.15,1.74-11.07,1-1.51-17.3s-14.25-8.32-13.82-7.29L29.62,50.38,18,70.51,22.28,73,21.07,75.3l2.07,1.12-4,8,4.09,2.46L31.74,70.5l-3-1.79L34,59.09l14.44-1.26L33.41,85.77,35.52,109,13.63,121.32l4.24,9.78L45.8,115.75l-.68-20.31L63,104.33l.38,22.79,11.13-.83L71.91,97,52.62,87l7.49-13.16L60.82,82l28.67-2.51Z"/>
      </g>
      <g>
        <g>
          <path class="cls-1" d="M17,192.76l-.78,2.82H13.63l3.34-11h3.25l3.42,11H20.95l-.85-2.82Zm2.78-1.85-.68-2.33c-.19-.65-.39-1.47-.55-2.11h0c-.16.65-.33,1.48-.5,2.11l-.65,2.33Z"/>
          <path class="cls-1" d="M25.09,184.76a21.71,21.71,0,0,1,3.3-.23,5.6,5.6,0,0,1,3.55.86,2.78,2.78,0,0,1,1,2.31A2.9,2.9,0,0,1,31,190.39v0a2.74,2.74,0,0,1,1.46,2c.34,1.25.67,2.68.88,3.11H30.83a14.76,14.76,0,0,1-.75-2.55c-.31-1.38-.78-1.74-1.8-1.76h-.73v4.31H25.09Zm2.46,4.72h1c1.24,0,2-.62,2-1.58s-.68-1.51-1.82-1.51a4.74,4.74,0,0,0-1.12.08Z"/>
          <path class="cls-1" d="M42.7,195.28a7.27,7.27,0,0,1-2.8.47c-3.79,0-5.74-2.38-5.74-5.5,0-3.74,2.67-5.81,6-5.81a6.2,6.2,0,0,1,2.7.49l-.52,2a5.22,5.22,0,0,0-2.08-.41,3.6,3.6,0,0,0,0,7.2,5.89,5.89,0,0,0,2.08-.36Z"/>
          <path class="cls-1" d="M46.84,184.61v4.21h4.08v-4.21H53.4v11H50.92V191H46.84v4.59H44.37v-11Z"/>
          <path class="cls-1" d="M58.06,184.61v11H55.58v-11Z"/>
          <path class="cls-1" d="M62.33,186.7h-3v-2.08H67.8v2.08h-3v8.88H62.33Z"/>
          <path class="cls-1" d="M75.64,190.94h-4v2.6h4.5v2h-7v-11h6.75v2H71.61v2.28h4Z"/>
          <path class="cls-1" d="M85.85,195.28a7.27,7.27,0,0,1-2.8.47c-3.79,0-5.74-2.38-5.74-5.5,0-3.74,2.67-5.81,6-5.81a6.2,6.2,0,0,1,2.7.49l-.52,2a5.22,5.22,0,0,0-2.08-.41,3.6,3.6,0,0,0,0,7.2,5.9,5.9,0,0,0,2.08-.36Z"/>
          <path class="cls-1" d="M89.85,186.7h-3v-2.08h8.43v2.08h-3v8.88H89.85Z"/>
          <path class="cls-1" d="M99.11,184.61v6.29c0,1.9.73,2.86,2,2.86s2-.91,2-2.86v-6.29h2.47v6.15c0,3.38-1.71,5-4.57,5s-4.37-1.54-4.37-5v-6.12Z"/>
          <path class="cls-1" d="M107.74,184.76a21.71,21.71,0,0,1,3.3-.23,5.6,5.6,0,0,1,3.55.86,2.78,2.78,0,0,1,1,2.31,2.9,2.9,0,0,1-1.94,2.68v0a2.74,2.74,0,0,1,1.47,2c.34,1.25.67,2.68.88,3.11h-2.54a14.76,14.76,0,0,1-.75-2.55c-.31-1.38-.78-1.74-1.8-1.76h-.73v4.31h-2.46Zm2.46,4.72h1c1.24,0,2-.62,2-1.58s-.68-1.51-1.82-1.51a4.74,4.74,0,0,0-1.12.08Z"/>
          <path class="cls-1" d="M123.91,190.94h-4v2.6h4.5v2h-7v-11h6.75v2h-4.28v2.28h4Z"/>
          <path class="cls-1" d="M143.69,184.78a22,22,0,0,1,3.33-.24,7.15,7.15,0,0,1,4.51,1.17,4.85,4.85,0,0,1,1.85,4.13,5.6,5.6,0,0,1-1.81,4.44,7.92,7.92,0,0,1-5.08,1.42,21.06,21.06,0,0,1-2.81-.16Zm2.47,8.93a4.48,4.48,0,0,0,.86.05c2.26,0,3.74-1.22,3.74-3.84a3.17,3.17,0,0,0-3.48-3.48,5.32,5.32,0,0,0-1.12.1Z"/>
          <path class="cls-1" d="M161.54,190.94h-4v2.6H162v2h-7v-11h6.75v2H157.5v2.28h4Z"/>
          <path class="cls-1" d="M163.79,193a6.28,6.28,0,0,0,2.75.68c1.14,0,1.74-.47,1.74-1.19s-.52-1.07-1.84-1.53c-1.82-.65-3-1.66-3-3.25,0-1.87,1.58-3.29,4.15-3.29a6.43,6.43,0,0,1,2.8.55l-.55,2a5.16,5.16,0,0,0-2.28-.52c-1.07,0-1.59.5-1.59,1.06s.6,1,2,1.55c1.94.72,2.83,1.72,2.83,3.27,0,1.84-1.4,3.4-4.41,3.4a7.15,7.15,0,0,1-3.11-.68Z"/>
          <path class="cls-1" d="M175,184.61v11h-2.47v-11Z"/>
          <path class="cls-1" d="M186.29,195.07a12.29,12.29,0,0,1-3.66.62,6.18,6.18,0,0,1-4.46-1.46,5.49,5.49,0,0,1-1.55-4c0-3.64,2.67-5.72,6.26-5.72a7.93,7.93,0,0,1,3,.52l-.52,2a5.75,5.75,0,0,0-2.54-.47,3.57,3.57,0,0,0-.18,7.14,3.81,3.81,0,0,0,1.2-.15v-2.31h-1.69V189.3h4.08Z"/>
          <path class="cls-1" d="M188.23,195.58v-11h2.9l2.28,4a34.83,34.83,0,0,1,1.79,3.76h0a45.55,45.55,0,0,1-.19-4.59v-3.19h2.28v11h-2.6l-2.34-4.23a37.25,37.25,0,0,1-1.9-3.87h-.07c.08,1.46.11,3,.11,4.8v3.3Z"/>
        </g>
        <path class="cls-1" d="M134.72,184.48V189H139v1.92h-4.31v4.55h-2v-4.55h-4.31V189h4.31v-4.49Z"/>
      </g>
      <g>
        <path class="cls-1" d="M18.56,153.77c1.41,0,3.28.06,4.27.12a8.72,8.72,0,0,1,5.35,2.21c2.26,2,3.35,4.87,3.35,8.88a11.93,11.93,0,0,1-2.46,7.72,8.58,8.58,0,0,1-6,3.21c-.91.06-2.07.13-3.52.13h-6V153.77Zm.07,18.61h2.64c3.24,0,4.72-2.27,4.72-7,0-2.59-.25-4.78-1.23-6.25a4.16,4.16,0,0,0-3.88-1.86H18.63Z"/>
        <path class="cls-1" d="M45.93,153.71,53.3,176h-5l-1.65-5.29H39.74L38.09,176H33.18l7.67-22.33ZM45.46,167s-.77-2.34-1.28-4.49c-.24-1-.94-3.94-.94-3.94l-1.11,4.29c-.44,1.61-.74,2.66-1.24,4.13Z"/>
        <path class="cls-1" d="M57.46,153.77l3.87,11.59c.31,1,.71,2.24,1.08,3.88a41.72,41.72,0,0,1,1.35-4.46l4-11h4.94L64.53,176.2H60.26l-7.94-22.43Z"/>
        <path class="cls-1" d="M80.1,153.77v18.55h8.38V176H75.29V153.77Z"/>
        <path class="cls-1" d="M111.42,155.69l-1.16,1.89a8.86,8.86,0,0,0-5.35-1.86c-2.76,0-4.38,1.38-4.38,3.62,0,1.76,1.05,2.79,3.64,3.59l2.54.8a7.4,7.4,0,0,1,3.87,2.21,6.1,6.1,0,0,1,1.44,3.88,6.47,6.47,0,0,1-3,5.29,8.48,8.48,0,0,1-4.93,1.34,12.92,12.92,0,0,1-7-2l1.15-2.05a9.61,9.61,0,0,0,5.9,1.89,5.11,5.11,0,0,0,3.49-1,3.77,3.77,0,0,0,1.57-3.14c0-2-1.29-3.3-3.94-4.1l-2.21-.67c-2-.61-3.05-1.06-3.91-2a5.12,5.12,0,0,1-1.38-3.59c0-3.75,2.86-6.31,7.12-6.31A11.52,11.52,0,0,1,111.42,155.69Z"/>
        <path class="cls-1" d="M114.4,154.05h14.55v2.21h-6.12V176h-2.53V156.27H114.4Z"/>
        <path class="cls-1" d="M132.24,154.05h2.6v14.07a19.11,19.11,0,0,0,.23,3.36c.38,1.73,2,2.69,4.45,2.69,1.82,0,3.2-.48,3.88-1.38s.82-1.7.82-3.75v-15h2.59v15.28c0,3.15-.32,4.2-1.66,5.39s-3.1,1.69-5.77,1.69c-3.39,0-5.48-1.09-6.5-3.18-.48-1-.65-1.4-.65-3.84Z"/>
        <path class="cls-1" d="M152.1,154.25h4.39c3.36,0,4.9.16,7.05,1.69,2.5,1.8,3.71,4.94,3.71,9.23,0,3.84-1,6.5-2.5,8.14-1.92,2.15-3.5,2.72-6.92,2.72H152.1Zm2.63,2.15v17.46h2.35a14,14,0,0,0,2.69-.16,4.63,4.63,0,0,0,3.18-2.11,11.6,11.6,0,0,0,1.47-6.09c0-3.3-.41-5.35-1.89-7.12s-2.85-2-5.16-2Z"/>
        <path class="cls-1" d="M172.26,154.05h2.56v22h-2.56Z"/>
        <path class="cls-1" d="M188.4,153.67a7.93,7.93,0,0,1,6.92,3.58c1.38,2.05,2,4.62,2,8.14,0,4.23-1,6.89-3.2,8.94a7.69,7.69,0,0,1-5.57,2.11,8,8,0,0,1-6.25-2.79c-1.74-2-2.63-5-2.63-8.72C179.65,158,183,153.67,188.4,153.67Zm0,2.12a5.22,5.22,0,0,0-4.71,2.56,12.62,12.62,0,0,0-1.12,6.05c0,3.3.54,6.18,1.41,7.66a5.73,5.73,0,0,0,4.68,2.37,4.85,4.85,0,0,0,4.1-1.89c1.09-1.38,1.6-3.14,1.6-6.76,0-3.24-.32-5.44-1.06-7A5.15,5.15,0,0,0,188.4,155.79Z"/>
      </g>
    </a>
</svg>
